<?xml version="1.0" encoding="utf-8" standalone="no"?>
<!DOCTYPE svg PUBLIC "-//W3C//DTD SVG 1.1//EN"
  "http://www.w3.org/Graphics/SVG/1.1/DTD/svg11.dtd">
<!-- Created with matplotlib (https://matplotlib.org/) -->
<svg height="294.23625pt" version="1.1" viewBox="0 0 392.14375 294.23625" width="392.14375pt" xmlns="http://www.w3.org/2000/svg" xmlns:xlink="http://www.w3.org/1999/xlink">
 <metadata>
  <rdf:RDF xmlns:cc="http://creativecommons.org/ns#" xmlns:dc="http://purl.org/dc/elements/1.1/" xmlns:rdf="http://www.w3.org/1999/02/22-rdf-syntax-ns#">
   <cc:Work>
    <dc:type rdf:resource="http://purl.org/dc/dcmitype/StillImage"/>
    <dc:date>2023-07-16T19:20:15.800288</dc:date>
    <dc:format>image/svg+xml</dc:format>
    <dc:creator>
     <cc:Agent>
      <dc:title>Matplotlib v3.3.2, https://matplotlib.org/</dc:title>
     </cc:Agent>
    </dc:creator>
   </cc:Work>
  </rdf:RDF>
 </metadata>
 <defs>
  <style type="text/css">*{stroke-linecap:butt;stroke-linejoin:round;}</style>
 </defs>
 <g id="figure_1">
  <g id="patch_1">
   <path d="M 0 294.23625 
L 392.14375 294.23625 
L 392.14375 0 
L 0 0 
z
" style="fill:#ffffff;"/>
  </g>
  <g id="axes_1">
   <g id="patch_2">
    <path d="M 50.14375 256.68 
L 384.94375 256.68 
L 384.94375 7.2 
L 50.14375 7.2 
z
" style="fill:#ffffff;"/>
   </g>
   <g id="matplotlib.axis_1">
    <g id="xtick_1">
     <g id="line2d_1">
      <defs>
       <path d="M 0 0 
L 0 3.5 
" id="mfb4d6e2cea" style="stroke:#000000;stroke-width:0.8;"/>
      </defs>
      <g>
       <use style="stroke:#000000;stroke-width:0.8;" x="65.361932" xlink:href="#mfb4d6e2cea" y="256.68"/>
      </g>
     </g>
     <g id="text_1">
      <!-- 0 -->
      <g transform="translate(62.180682 271.278438)scale(0.1 -0.1)">
       <defs>
        <path d="M 31.78125 66.40625 
Q 24.171875 66.40625 20.328125 58.90625 
Q 16.5 51.421875 16.5 36.375 
Q 16.5 21.390625 20.328125 13.890625 
Q 24.171875 6.390625 31.78125 6.390625 
Q 39.453125 6.390625 43.28125 13.890625 
Q 47.125 21.390625 47.125 36.375 
Q 47.125 51.421875 43.28125 58.90625 
Q 39.453125 66.40625 31.78125 66.40625 
z
M 31.78125 74.21875 
Q 44.046875 74.21875 50.515625 64.515625 
Q 56.984375 54.828125 56.984375 36.375 
Q 56.984375 17.96875 50.515625 8.265625 
Q 44.046875 -1.421875 31.78125 -1.421875 
Q 19.53125 -1.421875 13.0625 8.265625 
Q 6.59375 17.96875 6.59375 36.375 
Q 6.59375 54.828125 13.0625 64.515625 
Q 19.53125 74.21875 31.78125 74.21875 
z
" id="DejaVuSans-48"/>
       </defs>
       <use xlink:href="#DejaVuSans-48"/>
      </g>
     </g>
    </g>
    <g id="xtick_2">
     <g id="line2d_2">
      <g>
       <use style="stroke:#000000;stroke-width:0.8;" x="126.356649" xlink:href="#mfb4d6e2cea" y="256.68"/>
      </g>
     </g>
     <g id="text_2">
      <!-- 100 -->
      <g transform="translate(116.812899 271.278438)scale(0.1 -0.1)">
       <defs>
        <path d="M 12.40625 8.296875 
L 28.515625 8.296875 
L 28.515625 63.921875 
L 10.984375 60.40625 
L 10.984375 69.390625 
L 28.421875 72.90625 
L 38.28125 72.90625 
L 38.28125 8.296875 
L 54.390625 8.296875 
L 54.390625 0 
L 12.40625 0 
z
" id="DejaVuSans-49"/>
       </defs>
       <use xlink:href="#DejaVuSans-49"/>
       <use x="63.623047" xlink:href="#DejaVuSans-48"/>
       <use x="127.246094" xlink:href="#DejaVuSans-48"/>
      </g>
     </g>
    </g>
    <g id="xtick_3">
     <g id="line2d_3">
      <g>
       <use style="stroke:#000000;stroke-width:0.8;" x="187.351365" xlink:href="#mfb4d6e2cea" y="256.68"/>
      </g>
     </g>
     <g id="text_3">
      <!-- 200 -->
      <g transform="translate(177.807615 271.278438)scale(0.1 -0.1)">
       <defs>
        <path d="M 19.1875 8.296875 
L 53.609375 8.296875 
L 53.609375 0 
L 7.328125 0 
L 7.328125 8.296875 
Q 12.9375 14.109375 22.625 23.890625 
Q 32.328125 33.6875 34.8125 36.53125 
Q 39.546875 41.84375 41.421875 45.53125 
Q 43.3125 49.21875 43.3125 52.78125 
Q 43.3125 58.59375 39.234375 62.25 
Q 35.15625 65.921875 28.609375 65.921875 
Q 23.96875 65.921875 18.8125 64.3125 
Q 13.671875 62.703125 7.8125 59.421875 
L 7.8125 69.390625 
Q 13.765625 71.78125 18.9375 73 
Q 24.125 74.21875 28.421875 74.21875 
Q 39.75 74.21875 46.484375 68.546875 
Q 53.21875 62.890625 53.21875 53.421875 
Q 53.21875 48.921875 51.53125 44.890625 
Q 49.859375 40.875 45.40625 35.40625 
Q 44.1875 33.984375 37.640625 27.21875 
Q 31.109375 20.453125 19.1875 8.296875 
z
" id="DejaVuSans-50"/>
       </defs>
       <use xlink:href="#DejaVuSans-50"/>
       <use x="63.623047" xlink:href="#DejaVuSans-48"/>
       <use x="127.246094" xlink:href="#DejaVuSans-48"/>
      </g>
     </g>
    </g>
    <g id="xtick_4">
     <g id="line2d_4">
      <g>
       <use style="stroke:#000000;stroke-width:0.8;" x="248.346082" xlink:href="#mfb4d6e2cea" y="256.68"/>
      </g>
     </g>
     <g id="text_4">
      <!-- 300 -->
      <g transform="translate(238.802332 271.278438)scale(0.1 -0.1)">
       <defs>
        <path d="M 40.578125 39.3125 
Q 47.65625 37.796875 51.625 33 
Q 55.609375 28.21875 55.609375 21.1875 
Q 55.609375 10.40625 48.1875 4.484375 
Q 40.765625 -1.421875 27.09375 -1.421875 
Q 22.515625 -1.421875 17.65625 -0.515625 
Q 12.796875 0.390625 7.625 2.203125 
L 7.625 11.71875 
Q 11.71875 9.328125 16.59375 8.109375 
Q 21.484375 6.890625 26.8125 6.890625 
Q 36.078125 6.890625 40.9375 10.546875 
Q 45.796875 14.203125 45.796875 21.1875 
Q 45.796875 27.640625 41.28125 31.265625 
Q 36.765625 34.90625 28.71875 34.90625 
L 20.21875 34.90625 
L 20.21875 43.015625 
L 29.109375 43.015625 
Q 36.375 43.015625 40.234375 45.921875 
Q 44.09375 48.828125 44.09375 54.296875 
Q 44.09375 59.90625 40.109375 62.90625 
Q 36.140625 65.921875 28.71875 65.921875 
Q 24.65625 65.921875 20.015625 65.03125 
Q 15.375 64.15625 9.8125 62.3125 
L 9.8125 71.09375 
Q 15.4375 72.65625 20.34375 73.4375 
Q 25.25 74.21875 29.59375 74.21875 
Q 40.828125 74.21875 47.359375 69.109375 
Q 53.90625 64.015625 53.90625 55.328125 
Q 53.90625 49.265625 50.4375 45.09375 
Q 46.96875 40.921875 40.578125 39.3125 
z
" id="DejaVuSans-51"/>
       </defs>
       <use xlink:href="#DejaVuSans-51"/>
       <use x="63.623047" xlink:href="#DejaVuSans-48"/>
       <use x="127.246094" xlink:href="#DejaVuSans-48"/>
      </g>
     </g>
    </g>
    <g id="xtick_5">
     <g id="line2d_5">
      <g>
       <use style="stroke:#000000;stroke-width:0.8;" x="309.340799" xlink:href="#mfb4d6e2cea" y="256.68"/>
      </g>
     </g>
     <g id="text_5">
      <!-- 400 -->
      <g transform="translate(299.797049 271.278438)scale(0.1 -0.1)">
       <defs>
        <path d="M 37.796875 64.3125 
L 12.890625 25.390625 
L 37.796875 25.390625 
z
M 35.203125 72.90625 
L 47.609375 72.90625 
L 47.609375 25.390625 
L 58.015625 25.390625 
L 58.015625 17.1875 
L 47.609375 17.1875 
L 47.609375 0 
L 37.796875 0 
L 37.796875 17.1875 
L 4.890625 17.1875 
L 4.890625 26.703125 
z
" id="DejaVuSans-52"/>
       </defs>
       <use xlink:href="#DejaVuSans-52"/>
       <use x="63.623047" xlink:href="#DejaVuSans-48"/>
       <use x="127.246094" xlink:href="#DejaVuSans-48"/>
      </g>
     </g>
    </g>
    <g id="xtick_6">
     <g id="line2d_6">
      <g>
       <use style="stroke:#000000;stroke-width:0.8;" x="370.335515" xlink:href="#mfb4d6e2cea" y="256.68"/>
      </g>
     </g>
     <g id="text_6">
      <!-- 500 -->
      <g transform="translate(360.791765 271.278438)scale(0.1 -0.1)">
       <defs>
        <path d="M 10.796875 72.90625 
L 49.515625 72.90625 
L 49.515625 64.59375 
L 19.828125 64.59375 
L 19.828125 46.734375 
Q 21.96875 47.46875 24.109375 47.828125 
Q 26.265625 48.1875 28.421875 48.1875 
Q 40.625 48.1875 47.75 41.5 
Q 54.890625 34.8125 54.890625 23.390625 
Q 54.890625 11.625 47.5625 5.09375 
Q 40.234375 -1.421875 26.90625 -1.421875 
Q 22.3125 -1.421875 17.546875 -0.640625 
Q 12.796875 0.140625 7.71875 1.703125 
L 7.71875 11.625 
Q 12.109375 9.234375 16.796875 8.0625 
Q 21.484375 6.890625 26.703125 6.890625 
Q 35.15625 6.890625 40.078125 11.328125 
Q 45.015625 15.765625 45.015625 23.390625 
Q 45.015625 31 40.078125 35.4375 
Q 35.15625 39.890625 26.703125 39.890625 
Q 22.75 39.890625 18.8125 39.015625 
Q 14.890625 38.140625 10.796875 36.28125 
z
" id="DejaVuSans-53"/>
       </defs>
       <use xlink:href="#DejaVuSans-53"/>
       <use x="63.623047" xlink:href="#DejaVuSans-48"/>
       <use x="127.246094" xlink:href="#DejaVuSans-48"/>
      </g>
     </g>
    </g>
    <g id="text_7">
     <!-- Groups of experiments -->
     <g transform="translate(160.397656 284.956563)scale(0.1 -0.1)">
      <defs>
       <path d="M 59.515625 10.40625 
L 59.515625 29.984375 
L 43.40625 29.984375 
L 43.40625 38.09375 
L 69.28125 38.09375 
L 69.28125 6.78125 
Q 63.578125 2.734375 56.6875 0.65625 
Q 49.8125 -1.421875 42 -1.421875 
Q 24.90625 -1.421875 15.25 8.5625 
Q 5.609375 18.5625 5.609375 36.375 
Q 5.609375 54.25 15.25 64.234375 
Q 24.90625 74.21875 42 74.21875 
Q 49.125 74.21875 55.546875 72.453125 
Q 61.96875 70.703125 67.390625 67.28125 
L 67.390625 56.78125 
Q 61.921875 61.421875 55.765625 63.765625 
Q 49.609375 66.109375 42.828125 66.109375 
Q 29.4375 66.109375 22.71875 58.640625 
Q 16.015625 51.171875 16.015625 36.375 
Q 16.015625 21.625 22.71875 14.15625 
Q 29.4375 6.6875 42.828125 6.6875 
Q 48.046875 6.6875 52.140625 7.59375 
Q 56.25 8.5 59.515625 10.40625 
z
" id="DejaVuSans-71"/>
       <path d="M 41.109375 46.296875 
Q 39.59375 47.171875 37.8125 47.578125 
Q 36.03125 48 33.890625 48 
Q 26.265625 48 22.1875 43.046875 
Q 18.109375 38.09375 18.109375 28.8125 
L 18.109375 0 
L 9.078125 0 
L 9.078125 54.6875 
L 18.109375 54.6875 
L 18.109375 46.1875 
Q 20.953125 51.171875 25.484375 53.578125 
Q 30.03125 56 36.53125 56 
Q 37.453125 56 38.578125 55.875 
Q 39.703125 55.765625 41.0625 55.515625 
z
" id="DejaVuSans-114"/>
       <path d="M 30.609375 48.390625 
Q 23.390625 48.390625 19.1875 42.75 
Q 14.984375 37.109375 14.984375 27.296875 
Q 14.984375 17.484375 19.15625 11.84375 
Q 23.34375 6.203125 30.609375 6.203125 
Q 37.796875 6.203125 41.984375 11.859375 
Q 46.1875 17.53125 46.1875 27.296875 
Q 46.1875 37.015625 41.984375 42.703125 
Q 37.796875 48.390625 30.609375 48.390625 
z
M 30.609375 56 
Q 42.328125 56 49.015625 48.375 
Q 55.71875 40.765625 55.71875 27.296875 
Q 55.71875 13.875 49.015625 6.21875 
Q 42.328125 -1.421875 30.609375 -1.421875 
Q 18.84375 -1.421875 12.171875 6.21875 
Q 5.515625 13.875 5.515625 27.296875 
Q 5.515625 40.765625 12.171875 48.375 
Q 18.84375 56 30.609375 56 
z
" id="DejaVuSans-111"/>
       <path d="M 8.5 21.578125 
L 8.5 54.6875 
L 17.484375 54.6875 
L 17.484375 21.921875 
Q 17.484375 14.15625 20.5 10.265625 
Q 23.53125 6.390625 29.59375 6.390625 
Q 36.859375 6.390625 41.078125 11.03125 
Q 45.3125 15.671875 45.3125 23.6875 
L 45.3125 54.6875 
L 54.296875 54.6875 
L 54.296875 0 
L 45.3125 0 
L 45.3125 8.40625 
Q 42.046875 3.421875 37.71875 1 
Q 33.40625 -1.421875 27.6875 -1.421875 
Q 18.265625 -1.421875 13.375 4.4375 
Q 8.5 10.296875 8.5 21.578125 
z
M 31.109375 56 
z
" id="DejaVuSans-117"/>
       <path d="M 18.109375 8.203125 
L 18.109375 -20.796875 
L 9.078125 -20.796875 
L 9.078125 54.6875 
L 18.109375 54.6875 
L 18.109375 46.390625 
Q 20.953125 51.265625 25.265625 53.625 
Q 29.59375 56 35.59375 56 
Q 45.5625 56 51.78125 48.09375 
Q 58.015625 40.1875 58.015625 27.296875 
Q 58.015625 14.40625 51.78125 6.484375 
Q 45.5625 -1.421875 35.59375 -1.421875 
Q 29.59375 -1.421875 25.265625 0.953125 
Q 20.953125 3.328125 18.109375 8.203125 
z
M 48.6875 27.296875 
Q 48.6875 37.203125 44.609375 42.84375 
Q 40.53125 48.484375 33.40625 48.484375 
Q 26.265625 48.484375 22.1875 42.84375 
Q 18.109375 37.203125 18.109375 27.296875 
Q 18.109375 17.390625 22.1875 11.75 
Q 26.265625 6.109375 33.40625 6.109375 
Q 40.53125 6.109375 44.609375 11.75 
Q 48.6875 17.390625 48.6875 27.296875 
z
" id="DejaVuSans-112"/>
       <path d="M 44.28125 53.078125 
L 44.28125 44.578125 
Q 40.484375 46.53125 36.375 47.5 
Q 32.28125 48.484375 27.875 48.484375 
Q 21.1875 48.484375 17.84375 46.4375 
Q 14.5 44.390625 14.5 40.28125 
Q 14.5 37.15625 16.890625 35.375 
Q 19.28125 33.59375 26.515625 31.984375 
L 29.59375 31.296875 
Q 39.15625 29.25 43.1875 25.515625 
Q 47.21875 21.78125 47.21875 15.09375 
Q 47.21875 7.46875 41.1875 3.015625 
Q 35.15625 -1.421875 24.609375 -1.421875 
Q 20.21875 -1.421875 15.453125 -0.5625 
Q 10.6875 0.296875 5.421875 2 
L 5.421875 11.28125 
Q 10.40625 8.6875 15.234375 7.390625 
Q 20.0625 6.109375 24.8125 6.109375 
Q 31.15625 6.109375 34.5625 8.28125 
Q 37.984375 10.453125 37.984375 14.40625 
Q 37.984375 18.0625 35.515625 20.015625 
Q 33.0625 21.96875 24.703125 23.78125 
L 21.578125 24.515625 
Q 13.234375 26.265625 9.515625 29.90625 
Q 5.8125 33.546875 5.8125 39.890625 
Q 5.8125 47.609375 11.28125 51.796875 
Q 16.75 56 26.8125 56 
Q 31.78125 56 36.171875 55.265625 
Q 40.578125 54.546875 44.28125 53.078125 
z
" id="DejaVuSans-115"/>
       <path id="DejaVuSans-32"/>
       <path d="M 37.109375 75.984375 
L 37.109375 68.5 
L 28.515625 68.5 
Q 23.6875 68.5 21.796875 66.546875 
Q 19.921875 64.59375 19.921875 59.515625 
L 19.921875 54.6875 
L 34.71875 54.6875 
L 34.71875 47.703125 
L 19.921875 47.703125 
L 19.921875 0 
L 10.890625 0 
L 10.890625 47.703125 
L 2.296875 47.703125 
L 2.296875 54.6875 
L 10.890625 54.6875 
L 10.890625 58.5 
Q 10.890625 67.625 15.140625 71.796875 
Q 19.390625 75.984375 28.609375 75.984375 
z
" id="DejaVuSans-102"/>
       <path d="M 56.203125 29.59375 
L 56.203125 25.203125 
L 14.890625 25.203125 
Q 15.484375 15.921875 20.484375 11.0625 
Q 25.484375 6.203125 34.421875 6.203125 
Q 39.59375 6.203125 44.453125 7.46875 
Q 49.3125 8.734375 54.109375 11.28125 
L 54.109375 2.78125 
Q 49.265625 0.734375 44.1875 -0.34375 
Q 39.109375 -1.421875 33.890625 -1.421875 
Q 20.796875 -1.421875 13.15625 6.1875 
Q 5.515625 13.8125 5.515625 26.8125 
Q 5.515625 40.234375 12.765625 48.109375 
Q 20.015625 56 32.328125 56 
Q 43.359375 56 49.78125 48.890625 
Q 56.203125 41.796875 56.203125 29.59375 
z
M 47.21875 32.234375 
Q 47.125 39.59375 43.09375 43.984375 
Q 39.0625 48.390625 32.421875 48.390625 
Q 24.90625 48.390625 20.390625 44.140625 
Q 15.875 39.890625 15.1875 32.171875 
z
" id="DejaVuSans-101"/>
       <path d="M 54.890625 54.6875 
L 35.109375 28.078125 
L 55.90625 0 
L 45.3125 0 
L 29.390625 21.484375 
L 13.484375 0 
L 2.875 0 
L 24.125 28.609375 
L 4.6875 54.6875 
L 15.28125 54.6875 
L 29.78125 35.203125 
L 44.28125 54.6875 
z
" id="DejaVuSans-120"/>
       <path d="M 9.421875 54.6875 
L 18.40625 54.6875 
L 18.40625 0 
L 9.421875 0 
z
M 9.421875 75.984375 
L 18.40625 75.984375 
L 18.40625 64.59375 
L 9.421875 64.59375 
z
" id="DejaVuSans-105"/>
       <path d="M 52 44.1875 
Q 55.375 50.25 60.0625 53.125 
Q 64.75 56 71.09375 56 
Q 79.640625 56 84.28125 50.015625 
Q 88.921875 44.046875 88.921875 33.015625 
L 88.921875 0 
L 79.890625 0 
L 79.890625 32.71875 
Q 79.890625 40.578125 77.09375 44.375 
Q 74.3125 48.1875 68.609375 48.1875 
Q 61.625 48.1875 57.5625 43.546875 
Q 53.515625 38.921875 53.515625 30.90625 
L 53.515625 0 
L 44.484375 0 
L 44.484375 32.71875 
Q 44.484375 40.625 41.703125 44.40625 
Q 38.921875 48.1875 33.109375 48.1875 
Q 26.21875 48.1875 22.15625 43.53125 
Q 18.109375 38.875 18.109375 30.90625 
L 18.109375 0 
L 9.078125 0 
L 9.078125 54.6875 
L 18.109375 54.6875 
L 18.109375 46.1875 
Q 21.1875 51.21875 25.484375 53.609375 
Q 29.78125 56 35.6875 56 
Q 41.65625 56 45.828125 52.96875 
Q 50 49.953125 52 44.1875 
z
" id="DejaVuSans-109"/>
       <path d="M 54.890625 33.015625 
L 54.890625 0 
L 45.90625 0 
L 45.90625 32.71875 
Q 45.90625 40.484375 42.875 44.328125 
Q 39.84375 48.1875 33.796875 48.1875 
Q 26.515625 48.1875 22.3125 43.546875 
Q 18.109375 38.921875 18.109375 30.90625 
L 18.109375 0 
L 9.078125 0 
L 9.078125 54.6875 
L 18.109375 54.6875 
L 18.109375 46.1875 
Q 21.34375 51.125 25.703125 53.5625 
Q 30.078125 56 35.796875 56 
Q 45.21875 56 50.046875 50.171875 
Q 54.890625 44.34375 54.890625 33.015625 
z
" id="DejaVuSans-110"/>
       <path d="M 18.3125 70.21875 
L 18.3125 54.6875 
L 36.8125 54.6875 
L 36.8125 47.703125 
L 18.3125 47.703125 
L 18.3125 18.015625 
Q 18.3125 11.328125 20.140625 9.421875 
Q 21.96875 7.515625 27.59375 7.515625 
L 36.8125 7.515625 
L 36.8125 0 
L 27.59375 0 
Q 17.1875 0 13.234375 3.875 
Q 9.28125 7.765625 9.28125 18.015625 
L 9.28125 47.703125 
L 2.6875 47.703125 
L 2.6875 54.6875 
L 9.28125 54.6875 
L 9.28125 70.21875 
z
" id="DejaVuSans-116"/>
      </defs>
      <use xlink:href="#DejaVuSans-71"/>
      <use x="77.490234" xlink:href="#DejaVuSans-114"/>
      <use x="116.353516" xlink:href="#DejaVuSans-111"/>
      <use x="177.535156" xlink:href="#DejaVuSans-117"/>
      <use x="240.914062" xlink:href="#DejaVuSans-112"/>
      <use x="304.390625" xlink:href="#DejaVuSans-115"/>
      <use x="356.490234" xlink:href="#DejaVuSans-32"/>
      <use x="388.277344" xlink:href="#DejaVuSans-111"/>
      <use x="449.458984" xlink:href="#DejaVuSans-102"/>
      <use x="484.664062" xlink:href="#DejaVuSans-32"/>
      <use x="516.451172" xlink:href="#DejaVuSans-101"/>
      <use x="576.224609" xlink:href="#DejaVuSans-120"/>
      <use x="635.404297" xlink:href="#DejaVuSans-112"/>
      <use x="698.880859" xlink:href="#DejaVuSans-101"/>
      <use x="760.404297" xlink:href="#DejaVuSans-114"/>
      <use x="801.517578" xlink:href="#DejaVuSans-105"/>
      <use x="829.300781" xlink:href="#DejaVuSans-109"/>
      <use x="926.712891" xlink:href="#DejaVuSans-101"/>
      <use x="988.236328" xlink:href="#DejaVuSans-110"/>
      <use x="1051.615234" xlink:href="#DejaVuSans-116"/>
      <use x="1090.824219" xlink:href="#DejaVuSans-115"/>
     </g>
    </g>
   </g>
   <g id="matplotlib.axis_2">
    <g id="ytick_1">
     <g id="line2d_7">
      <defs>
       <path d="M 0 0 
L -3.5 0 
" id="mef7ddcb5f9" style="stroke:#000000;stroke-width:0.8;"/>
      </defs>
      <g>
       <use style="stroke:#000000;stroke-width:0.8;" x="50.14375" xlink:href="#mef7ddcb5f9" y="245.34"/>
      </g>
     </g>
     <g id="text_8">
      <!-- 0.00 -->
      <g transform="translate(20.878125 249.139219)scale(0.1 -0.1)">
       <defs>
        <path d="M 10.6875 12.40625 
L 21 12.40625 
L 21 0 
L 10.6875 0 
z
" id="DejaVuSans-46"/>
       </defs>
       <use xlink:href="#DejaVuSans-48"/>
       <use x="63.623047" xlink:href="#DejaVuSans-46"/>
       <use x="95.410156" xlink:href="#DejaVuSans-48"/>
       <use x="159.033203" xlink:href="#DejaVuSans-48"/>
      </g>
     </g>
    </g>
    <g id="ytick_2">
     <g id="line2d_8">
      <g>
       <use style="stroke:#000000;stroke-width:0.8;" x="50.14375" xlink:href="#mef7ddcb5f9" y="216.99"/>
      </g>
     </g>
     <g id="text_9">
      <!-- 0.05 -->
      <g transform="translate(20.878125 220.789219)scale(0.1 -0.1)">
       <use xlink:href="#DejaVuSans-48"/>
       <use x="63.623047" xlink:href="#DejaVuSans-46"/>
       <use x="95.410156" xlink:href="#DejaVuSans-48"/>
       <use x="159.033203" xlink:href="#DejaVuSans-53"/>
      </g>
     </g>
    </g>
    <g id="ytick_3">
     <g id="line2d_9">
      <g>
       <use style="stroke:#000000;stroke-width:0.8;" x="50.14375" xlink:href="#mef7ddcb5f9" y="188.640001"/>
      </g>
     </g>
     <g id="text_10">
      <!-- 0.10 -->
      <g transform="translate(20.878125 192.43922)scale(0.1 -0.1)">
       <use xlink:href="#DejaVuSans-48"/>
       <use x="63.623047" xlink:href="#DejaVuSans-46"/>
       <use x="95.410156" xlink:href="#DejaVuSans-49"/>
       <use x="159.033203" xlink:href="#DejaVuSans-48"/>
      </g>
     </g>
    </g>
    <g id="ytick_4">
     <g id="line2d_10">
      <g>
       <use style="stroke:#000000;stroke-width:0.8;" x="50.14375" xlink:href="#mef7ddcb5f9" y="160.290001"/>
      </g>
     </g>
     <g id="text_11">
      <!-- 0.15 -->
      <g transform="translate(20.878125 164.08922)scale(0.1 -0.1)">
       <use xlink:href="#DejaVuSans-48"/>
       <use x="63.623047" xlink:href="#DejaVuSans-46"/>
       <use x="95.410156" xlink:href="#DejaVuSans-49"/>
       <use x="159.033203" xlink:href="#DejaVuSans-53"/>
      </g>
     </g>
    </g>
    <g id="ytick_5">
     <g id="line2d_11">
      <g>
       <use style="stroke:#000000;stroke-width:0.8;" x="50.14375" xlink:href="#mef7ddcb5f9" y="131.940002"/>
      </g>
     </g>
     <g id="text_12">
      <!-- 0.20 -->
      <g transform="translate(20.878125 135.73922)scale(0.1 -0.1)">
       <use xlink:href="#DejaVuSans-48"/>
       <use x="63.623047" xlink:href="#DejaVuSans-46"/>
       <use x="95.410156" xlink:href="#DejaVuSans-50"/>
       <use x="159.033203" xlink:href="#DejaVuSans-48"/>
      </g>
     </g>
    </g>
    <g id="ytick_6">
     <g id="line2d_12">
      <g>
       <use style="stroke:#000000;stroke-width:0.8;" x="50.14375" xlink:href="#mef7ddcb5f9" y="103.590002"/>
      </g>
     </g>
     <g id="text_13">
      <!-- 0.25 -->
      <g transform="translate(20.878125 107.389221)scale(0.1 -0.1)">
       <use xlink:href="#DejaVuSans-48"/>
       <use x="63.623047" xlink:href="#DejaVuSans-46"/>
       <use x="95.410156" xlink:href="#DejaVuSans-50"/>
       <use x="159.033203" xlink:href="#DejaVuSans-53"/>
      </g>
     </g>
    </g>
    <g id="ytick_7">
     <g id="line2d_13">
      <g>
       <use style="stroke:#000000;stroke-width:0.8;" x="50.14375" xlink:href="#mef7ddcb5f9" y="75.240003"/>
      </g>
     </g>
     <g id="text_14">
      <!-- 0.30 -->
      <g transform="translate(20.878125 79.039221)scale(0.1 -0.1)">
       <use xlink:href="#DejaVuSans-48"/>
       <use x="63.623047" xlink:href="#DejaVuSans-46"/>
       <use x="95.410156" xlink:href="#DejaVuSans-51"/>
       <use x="159.033203" xlink:href="#DejaVuSans-48"/>
      </g>
     </g>
    </g>
    <g id="ytick_8">
     <g id="line2d_14">
      <g>
       <use style="stroke:#000000;stroke-width:0.8;" x="50.14375" xlink:href="#mef7ddcb5f9" y="46.890003"/>
      </g>
     </g>
     <g id="text_15">
      <!-- 0.35 -->
      <g transform="translate(20.878125 50.689222)scale(0.1 -0.1)">
       <use xlink:href="#DejaVuSans-48"/>
       <use x="63.623047" xlink:href="#DejaVuSans-46"/>
       <use x="95.410156" xlink:href="#DejaVuSans-51"/>
       <use x="159.033203" xlink:href="#DejaVuSans-53"/>
      </g>
     </g>
    </g>
    <g id="ytick_9">
     <g id="line2d_15">
      <g>
       <use style="stroke:#000000;stroke-width:0.8;" x="50.14375" xlink:href="#mef7ddcb5f9" y="18.540003"/>
      </g>
     </g>
     <g id="text_16">
      <!-- 0.40 -->
      <g transform="translate(20.878125 22.339222)scale(0.1 -0.1)">
       <use xlink:href="#DejaVuSans-48"/>
       <use x="63.623047" xlink:href="#DejaVuSans-46"/>
       <use x="95.410156" xlink:href="#DejaVuSans-52"/>
       <use x="159.033203" xlink:href="#DejaVuSans-48"/>
      </g>
     </g>
    </g>
    <g id="text_17">
     <!-- Estimated probability -->
     <g transform="translate(14.798438 185.463438)rotate(-90)scale(0.1 -0.1)">
      <defs>
       <path d="M 9.8125 72.90625 
L 55.90625 72.90625 
L 55.90625 64.59375 
L 19.671875 64.59375 
L 19.671875 43.015625 
L 54.390625 43.015625 
L 54.390625 34.71875 
L 19.671875 34.71875 
L 19.671875 8.296875 
L 56.78125 8.296875 
L 56.78125 0 
L 9.8125 0 
z
" id="DejaVuSans-69"/>
       <path d="M 34.28125 27.484375 
Q 23.390625 27.484375 19.1875 25 
Q 14.984375 22.515625 14.984375 16.5 
Q 14.984375 11.71875 18.140625 8.90625 
Q 21.296875 6.109375 26.703125 6.109375 
Q 34.1875 6.109375 38.703125 11.40625 
Q 43.21875 16.703125 43.21875 25.484375 
L 43.21875 27.484375 
z
M 52.203125 31.203125 
L 52.203125 0 
L 43.21875 0 
L 43.21875 8.296875 
Q 40.140625 3.328125 35.546875 0.953125 
Q 30.953125 -1.421875 24.3125 -1.421875 
Q 15.921875 -1.421875 10.953125 3.296875 
Q 6 8.015625 6 15.921875 
Q 6 25.140625 12.171875 29.828125 
Q 18.359375 34.515625 30.609375 34.515625 
L 43.21875 34.515625 
L 43.21875 35.40625 
Q 43.21875 41.609375 39.140625 45 
Q 35.0625 48.390625 27.6875 48.390625 
Q 23 48.390625 18.546875 47.265625 
Q 14.109375 46.140625 10.015625 43.890625 
L 10.015625 52.203125 
Q 14.9375 54.109375 19.578125 55.046875 
Q 24.21875 56 28.609375 56 
Q 40.484375 56 46.34375 49.84375 
Q 52.203125 43.703125 52.203125 31.203125 
z
" id="DejaVuSans-97"/>
       <path d="M 45.40625 46.390625 
L 45.40625 75.984375 
L 54.390625 75.984375 
L 54.390625 0 
L 45.40625 0 
L 45.40625 8.203125 
Q 42.578125 3.328125 38.25 0.953125 
Q 33.9375 -1.421875 27.875 -1.421875 
Q 17.96875 -1.421875 11.734375 6.484375 
Q 5.515625 14.40625 5.515625 27.296875 
Q 5.515625 40.1875 11.734375 48.09375 
Q 17.96875 56 27.875 56 
Q 33.9375 56 38.25 53.625 
Q 42.578125 51.265625 45.40625 46.390625 
z
M 14.796875 27.296875 
Q 14.796875 17.390625 18.875 11.75 
Q 22.953125 6.109375 30.078125 6.109375 
Q 37.203125 6.109375 41.296875 11.75 
Q 45.40625 17.390625 45.40625 27.296875 
Q 45.40625 37.203125 41.296875 42.84375 
Q 37.203125 48.484375 30.078125 48.484375 
Q 22.953125 48.484375 18.875 42.84375 
Q 14.796875 37.203125 14.796875 27.296875 
z
" id="DejaVuSans-100"/>
       <path d="M 48.6875 27.296875 
Q 48.6875 37.203125 44.609375 42.84375 
Q 40.53125 48.484375 33.40625 48.484375 
Q 26.265625 48.484375 22.1875 42.84375 
Q 18.109375 37.203125 18.109375 27.296875 
Q 18.109375 17.390625 22.1875 11.75 
Q 26.265625 6.109375 33.40625 6.109375 
Q 40.53125 6.109375 44.609375 11.75 
Q 48.6875 17.390625 48.6875 27.296875 
z
M 18.109375 46.390625 
Q 20.953125 51.265625 25.265625 53.625 
Q 29.59375 56 35.59375 56 
Q 45.5625 56 51.78125 48.09375 
Q 58.015625 40.1875 58.015625 27.296875 
Q 58.015625 14.40625 51.78125 6.484375 
Q 45.5625 -1.421875 35.59375 -1.421875 
Q 29.59375 -1.421875 25.265625 0.953125 
Q 20.953125 3.328125 18.109375 8.203125 
L 18.109375 0 
L 9.078125 0 
L 9.078125 75.984375 
L 18.109375 75.984375 
z
" id="DejaVuSans-98"/>
       <path d="M 9.421875 75.984375 
L 18.40625 75.984375 
L 18.40625 0 
L 9.421875 0 
z
" id="DejaVuSans-108"/>
       <path d="M 32.171875 -5.078125 
Q 28.375 -14.84375 24.75 -17.8125 
Q 21.140625 -20.796875 15.09375 -20.796875 
L 7.90625 -20.796875 
L 7.90625 -13.28125 
L 13.1875 -13.28125 
Q 16.890625 -13.28125 18.9375 -11.515625 
Q 21 -9.765625 23.484375 -3.21875 
L 25.09375 0.875 
L 2.984375 54.6875 
L 12.5 54.6875 
L 29.59375 11.921875 
L 46.6875 54.6875 
L 56.203125 54.6875 
z
" id="DejaVuSans-121"/>
      </defs>
      <use xlink:href="#DejaVuSans-69"/>
      <use x="63.183594" xlink:href="#DejaVuSans-115"/>
      <use x="115.283203" xlink:href="#DejaVuSans-116"/>
      <use x="154.492188" xlink:href="#DejaVuSans-105"/>
      <use x="182.275391" xlink:href="#DejaVuSans-109"/>
      <use x="279.6875" xlink:href="#DejaVuSans-97"/>
      <use x="340.966797" xlink:href="#DejaVuSans-116"/>
      <use x="380.175781" xlink:href="#DejaVuSans-101"/>
      <use x="441.699219" xlink:href="#DejaVuSans-100"/>
      <use x="505.175781" xlink:href="#DejaVuSans-32"/>
      <use x="536.962891" xlink:href="#DejaVuSans-112"/>
      <use x="600.439453" xlink:href="#DejaVuSans-114"/>
      <use x="639.302734" xlink:href="#DejaVuSans-111"/>
      <use x="700.484375" xlink:href="#DejaVuSans-98"/>
      <use x="763.960938" xlink:href="#DejaVuSans-97"/>
      <use x="825.240234" xlink:href="#DejaVuSans-98"/>
      <use x="888.716797" xlink:href="#DejaVuSans-105"/>
      <use x="916.5" xlink:href="#DejaVuSans-108"/>
      <use x="944.283203" xlink:href="#DejaVuSans-105"/>
      <use x="972.066406" xlink:href="#DejaVuSans-116"/>
      <use x="1011.275391" xlink:href="#DejaVuSans-121"/>
     </g>
    </g>
   </g>
   <g id="line2d_16">
    <path clip-path="url(#peb6c9ee366)" d="M 65.361932 245.34 
L 65.971879 188.64 
L 66.581826 169.739997 
L 67.191773 146.115003 
L 67.80172 154.620003 
L 68.411668 160.289998 
L 69.021615 164.339998 
L 69.631562 160.289998 
L 70.241509 150.839999 
L 71.461403 168.021817 
L 72.071351 174.465001 
L 72.681298 175.555386 
L 73.291245 168.389997 
L 73.901192 173.520002 
L 74.511139 167.377499 
L 75.731034 163.439998 
L 76.340981 155.813689 
L 76.950928 157.455001 
L 77.560875 161.639998 
L 78.780769 159.057396 
L 80.000664 165.960001 
L 80.610611 166.832305 
L 81.220558 161.340001 
L 81.830505 158.265002 
L 83.660347 155.717422 
L 84.270294 153.202505 
L 84.880241 154.276367 
L 86.100135 159.480005 
L 86.710083 158.715002 
L 87.929977 160.289998 
L 88.539924 162.470767 
L 89.149871 160.289998 
L 89.759819 162.364395 
L 90.979713 163.586511 
L 91.58966 162.867277 
L 92.199607 163.439998 
L 92.809554 165.220438 
L 93.419502 165.718724 
L 95.85929 163.069409 
L 97.079185 164.03434 
L 98.909026 162.315002 
L 99.518973 162.776847 
L 100.12892 164.200345 
L 100.738868 162.692544 
L 101.348815 162.180005 
L 102.568709 163.033552 
L 103.178656 160.739998 
L 103.788603 161.175939 
L 104.398551 162.470767 
L 105.008498 161.149088 
L 105.618445 161.559403 
L 106.228392 161.123826 
L 106.838339 162.344345 
L 109.278128 163.785205 
L 109.888075 163.354866 
L 111.107969 164.020264 
L 111.717917 163.603637 
L 112.327864 163.924613 
L 112.937811 163.519747 
L 113.547758 163.833753 
L 114.157705 162.740001 
L 114.767652 162.364395 
L 115.3776 163.364101 
L 115.987547 162.315002 
L 117.817388 163.222758 
L 118.427335 162.222959 
L 119.64723 161.549999 
L 120.257177 162.470767 
L 121.477071 163.033552 
L 122.087018 162.702767 
L 122.696966 163.572629 
L 123.306913 163.243128 
L 123.91686 164.089486 
L 124.526807 164.339998 
L 125.136754 164.012727 
L 126.356649 164.500401 
L 127.576543 163.868157 
L 128.18649 162.470767 
L 128.796437 162.180005 
L 129.406384 162.429621 
L 130.016332 161.084859 
L 130.626279 160.289998 
L 131.236226 160.550091 
L 132.45612 162.07784 
L 133.066067 161.302504 
L 133.676015 160.039115 
L 135.505856 159.312411 
L 136.115803 158.593844 
L 136.72575 158.848479 
L 137.945645 158.4 
L 138.555592 158.64992 
L 139.165539 158.430982 
L 139.775486 158.676585 
L 140.385433 159.375483 
L 140.995381 159.609603 
L 141.605328 158.039998 
L 142.215275 158.280945 
L 142.825222 158.075154 
L 144.045116 158.545389 
L 145.265011 156.424093 
L 145.874958 157.092633 
L 146.484905 157.328063 
L 147.094852 157.980002 
L 147.704799 158.205446 
L 148.924694 159.468261 
L 149.534641 158.454386 
L 150.754535 157.274041 
L 151.364482 157.095633 
L 151.97443 157.712728 
L 153.194324 156.575177 
L 153.804271 156.794799 
L 154.414218 156.625718 
L 155.024165 155.6927 
L 155.634113 155.533294 
L 156.24406 155.753997 
L 157.463954 155.440659 
L 158.073901 154.916469 
L 158.683848 155.503638 
L 159.293796 155.717422 
L 159.903743 155.201537 
L 160.51369 155.775669 
L 161.123637 155.983674 
L 161.733584 155.832454 
L 162.343531 156.037502 
L 162.953479 154.831303 
L 163.563426 154.690003 
L 164.173373 154.202574 
L 164.78332 154.066833 
L 165.393267 154.620003 
L 166.003214 154.824941 
L 166.613162 155.36695 
L 167.223109 154.889998 
L 167.833056 154.754207 
L 168.443003 153.952941 
L 169.05295 153.492634 
L 169.662897 153.367327 
L 170.272845 153.898961 
L 170.882792 153.772759 
L 171.492739 154.296003 
L 172.102686 153.846822 
L 172.712633 154.043387 
L 173.32258 153.600679 
L 173.932528 153.796424 
L 174.542475 154.305001 
L 175.152422 154.181435 
L 175.762369 154.370768 
L 176.372316 153.938358 
L 177.592211 154.313517 
L 178.202158 154.19323 
L 178.812105 154.680642 
L 179.422052 154.86128 
L 180.031999 154.740004 
L 180.641946 154.321578 
L 181.861841 154.679062 
L 182.471788 154.561241 
L 183.081735 154.736912 
L 183.691682 154.620003 
L 184.911577 154.96538 
L 185.521524 155.421818 
L 186.741418 155.753997 
L 187.351365 154.507168 
L 187.961312 154.95683 
L 190.401101 155.610872 
L 191.011048 155.496524 
L 191.620995 155.110677 
L 192.230943 154.999809 
L 194.060784 153.87113 
L 194.670731 154.300565 
L 195.280678 154.461028 
L 195.890626 154.356278 
L 196.500573 154.515 
L 197.11052 154.410968 
L 198.330414 154.723562 
L 198.940361 154.620003 
L 199.550309 155.030496 
L 200.160256 154.415674 
L 201.38015 154.721247 
L 201.990097 153.863999 
L 202.600044 153.766997 
L 203.819939 154.570264 
L 204.429886 154.719042 
L 205.64978 155.503638 
L 206.869675 155.301378 
L 207.479622 154.716921 
L 209.309463 155.146331 
L 210.529358 155.901085 
L 211.139305 155.565002 
L 211.749252 155.702239 
L 212.359199 155.604054 
L 212.969146 155.273336 
L 213.579093 155.410082 
L 214.189041 154.38857 
L 214.798988 154.297321 
L 215.408935 154.436357 
L 216.018882 154.802906 
L 216.628829 154.711083 
L 217.238776 154.846799 
L 219.068618 154.575182 
L 219.678565 154.709292 
L 220.288512 154.397652 
L 220.898459 154.752889 
L 221.508407 154.443505 
L 222.118354 154.356278 
L 222.728301 154.488647 
L 223.338248 153.965767 
L 223.948195 153.881379 
L 224.558142 154.014044 
L 225.16809 153.930112 
L 225.778037 153.63205 
L 226.387984 153.764149 
L 226.997931 153.68211 
L 227.607878 153.388314 
L 228.217825 153.308286 
L 228.827773 153.439633 
L 230.047667 153.280962 
L 230.657614 153.410957 
L 231.267561 153.747691 
L 231.877508 153.668101 
L 232.487456 153.382907 
L 233.097403 153.716092 
L 233.70735 153.432781 
L 234.317297 153.559423 
L 235.537191 153 
L 236.147139 153.126836 
L 236.757086 152.850639 
L 237.367033 152.776753 
L 237.97698 152.503734 
L 239.806822 152.881461 
L 241.026716 152.736545 
L 241.636663 152.860347 
L 242.856557 152.328697 
L 244.076452 152.961431 
L 244.686399 152.890172 
L 245.296346 153.01095 
L 246.51624 153.630605 
L 247.736135 153.486001 
L 248.346082 153.791161 
L 248.956029 153.531059 
L 249.565976 153.459801 
L 250.175923 153.575526 
L 250.785871 153.318686 
L 251.395818 153.61941 
L 252.005765 152.994728 
L 252.615712 153.294548 
L 254.445554 153.635497 
L 255.055501 153.384233 
L 255.665448 153.678021 
L 257.495289 153.471646 
L 258.105237 153.761454 
L 259.325131 153.62464 
L 259.935078 153.911254 
L 260.545025 153.489533 
L 261.154972 153.598693 
L 261.76492 153.531642 
L 262.374867 153.64 
L 262.984814 153.398774 
L 264.204708 153.614315 
L 264.814655 153.37537 
L 265.424603 153.310212 
L 266.03455 152.901823 
L 266.644497 153.009792 
L 267.254444 153.28789 
L 267.864391 153.223788 
L 269.084286 153.435223 
L 269.694233 153.202505 
L 270.914127 153.412191 
L 271.524074 153.348849 
L 272.134021 153.452645 
L 272.743969 153.389565 
L 273.353916 153.492634 
L 273.963863 153.760406 
L 274.57381 153.69698 
L 275.793704 153.898961 
L 276.403652 153.672275 
L 277.013599 153.772759 
L 278.233493 153.324001 
L 279.453387 153.202505 
L 280.063335 152.660394 
L 280.673282 152.922202 
L 281.893176 152.804331 
L 282.503123 153.063528 
L 283.11307 153.162904 
L 284.942912 153.928921 
L 285.552859 154.024808 
L 286.162806 153.963967 
L 286.772753 154.059229 
L 287.992648 153.938358 
L 288.602595 154.032919 
L 289.212542 153.972881 
L 289.822489 154.220486 
L 290.432436 154.16027 
L 291.042384 154.253209 
L 291.652331 154.19323 
L 292.262278 153.981558 
L 292.872225 153.922618 
L 293.482172 153.561602 
L 294.092119 153.654896 
L 294.702067 153.597299 
L 295.312014 153.690001 
L 295.921961 153.48301 
L 296.531908 153.426318 
L 297.141855 153.667561 
L 297.751802 153.31382 
L 298.971697 153.202505 
L 299.581644 153 
L 300.191591 152.651658 
L 303.241327 152.386809 
L 303.851274 152.189998 
L 304.461221 152.138477 
L 305.071168 152.23112 
L 305.681116 151.892663 
L 306.291063 151.842273 
L 306.90101 152.077788 
L 307.510957 152.027187 
L 308.120904 151.834737 
L 308.730851 152.068502 
L 309.340799 152.018307 
L 309.950746 152.250451 
L 310.560693 152.200053 
L 311.17064 152.009554 
L 312.390534 151.910693 
L 313.000482 152.000936 
L 314.830323 151.854144 
L 315.44027 152.081607 
L 316.660165 151.984072 
L 317.270112 152.072609 
L 317.880059 152.024095 
L 318.490006 151.566922 
L 319.099953 151.383883 
L 319.7099 151.47302 
L 320.929795 151.380005 
L 321.539742 151.603185 
L 322.149689 151.690952 
L 322.759636 151.510212 
L 323.369583 151.597786 
L 323.979531 151.818354 
L 325.199425 151.194103 
L 327.639214 151.541625 
L 328.249161 151.365 
L 328.859108 151.320136 
L 329.469055 151.144837 
L 330.688949 151.056748 
L 331.298897 151.14275 
L 331.908844 151.098908 
L 333.128738 151.527271 
L 334.95858 151.39463 
L 335.568527 151.478512 
L 336.178474 151.434611 
L 337.398368 151.601072 
L 340.448104 151.383588 
L 341.058051 151.215496 
L 341.667998 151.17304 
L 342.887893 150.839999 
L 344.107787 150.757469 
L 344.717734 150.839999 
L 346.547576 150.349089 
L 347.157523 150.431796 
L 347.76747 150.636336 
L 348.377417 150.352257 
L 348.987365 150.31275 
L 349.597312 150.394823 
L 350.207259 150.355383 
L 352.0371 150.599237 
L 352.647048 150.559704 
L 353.866942 150.241897 
L 354.476889 150.442103 
L 355.086836 150.284116 
L 355.696783 150.007928 
L 356.306731 150.207366 
L 357.526625 150.367499 
L 358.136572 150.329191 
L 358.746519 150.055766 
L 359.356466 150.253041 
L 359.966414 150.215207 
L 361.186308 150.373337 
L 361.796255 150.219059 
L 362.406202 150.297787 
L 363.016149 150.028341 
L 363.626097 150.222861 
L 364.236044 150.185627 
L 364.845991 149.918048 
L 365.455938 150.111605 
L 366.065885 150.074819 
L 367.28578 149.65875 
L 367.895727 149.737181 
L 368.505674 149.701451 
L 369.725568 149.857199 
L 369.725568 149.857199 
" style="fill:none;stroke:#1f77b4;stroke-linecap:square;stroke-width:1.5;"/>
   </g>
   <g id="line2d_17">
    <path clip-path="url(#peb6c9ee366)" d="M 65.361932 75.239996 
L 65.971879 103.590002 
L 66.581826 113.040001 
L 67.191773 103.590002 
L 67.80172 120.600003 
L 68.411668 122.490001 
L 69.021615 131.94 
L 69.631562 146.115003 
L 70.241509 150.839999 
L 71.461403 147.403638 
L 72.071351 146.115003 
L 72.681298 149.386153 
L 73.901192 162.180005 
L 75.121086 158.622351 
L 75.731034 163.439998 
L 76.340981 164.766315 
L 76.950928 163.125004 
L 77.560875 158.939998 
L 78.170822 157.712728 
L 79.390717 160.289998 
L 80.000664 156.887999 
L 80.610611 155.92846 
L 81.220558 159.240004 
L 81.830505 160.289998 
L 82.440452 157.357246 
L 83.0504 158.4 
L 83.660347 161.204522 
L 84.270294 162.06188 
L 84.880241 154.276367 
L 86.100135 149.760002 
L 86.710083 152.415003 
L 87.32003 151.861621 
L 87.929977 152.829475 
L 88.539924 150.839999 
L 89.149871 153.202505 
L 89.759819 154.066833 
L 90.369766 152.189998 
L 90.979713 153.037674 
L 91.58966 151.269544 
L 92.199607 148.320004 
L 92.809554 150.429134 
L 93.419502 150.035742 
L 94.029449 150.839999 
L 94.639396 149.297143 
L 95.249343 150.084003 
L 97.079185 145.847551 
L 97.689132 146.640005 
L 98.299079 145.341822 
L 99.518973 148.850531 
L 100.12892 149.536552 
L 100.738868 149.238304 
L 101.958762 150.530167 
L 102.568709 150.230322 
L 103.178656 151.739999 
L 103.788603 151.430623 
L 104.398551 150.258465 
L 105.008498 149.980909 
L 105.618445 148.865376 
L 106.228392 150.284116 
L 106.838339 150.839999 
L 107.448286 150.570004 
L 108.058234 148.710422 
L 109.278128 146.697533 
L 109.888075 147.264323 
L 110.498022 144.036002 
L 111.107969 143.130789 
L 111.717917 144.458179 
L 112.327864 144.297691 
L 112.937811 145.576712 
L 113.547758 144.697505 
L 114.157705 145.240004 
L 115.3776 144.919518 
L 115.987547 146.115003 
L 116.597494 145.948238 
L 117.207441 146.444656 
L 117.817388 146.277933 
L 118.427335 146.759321 
L 119.037283 145.318655 
L 119.64723 146.430006 
L 120.257177 146.893845 
L 120.867124 146.115003 
L 121.477071 147.181938 
L 122.087018 147.019785 
L 122.696966 147.457897 
L 123.306913 148.477501 
L 123.91686 146.553403 
L 125.136754 147.403638 
L 125.746701 147.249005 
L 126.966596 145.837058 
L 127.576543 146.25262 
L 128.18649 146.115003 
L 128.796437 146.520004 
L 129.406384 146.382455 
L 130.016332 146.777385 
L 131.236226 146.505142 
L 131.846173 145.341822 
L 132.45612 145.731894 
L 133.066067 145.60875 
L 133.676015 146.491328 
L 134.895909 147.224351 
L 135.505856 147.09259 
L 136.115803 147.932307 
L 136.72575 147.316276 
L 137.945645 147.060002 
L 138.555592 147.403638 
L 139.165539 147.276887 
L 139.775486 146.691222 
L 140.385433 147.029518 
L 141.605328 146.789999 
L 142.215275 145.780163 
L 142.825222 146.115003 
L 144.045116 145.024614 
L 144.655064 144.924731 
L 145.265011 145.255913 
L 145.874958 145.155793 
L 146.484905 144.210895 
L 147.094852 142.86 
L 147.704799 142.362795 
L 148.314747 142.700585 
L 148.924694 142.622609 
L 149.534641 143.361581 
L 150.144588 143.279997 
L 150.754535 144.003828 
L 151.364482 143.918874 
L 151.97443 144.628113 
L 153.194324 144.453102 
L 153.804271 143.979039 
L 154.414218 144.282855 
L 155.024165 144.965674 
L 155.634113 145.258794 
L 156.24406 145.170004 
L 157.463954 145.741973 
L 158.073901 145.651764 
L 158.683848 145.930909 
L 159.293796 145.109036 
L 160.51369 145.663567 
L 162.343531 145.406254 
L 162.953479 145.674787 
L 163.563426 145.590002 
L 164.173373 146.201968 
L 164.78332 146.460735 
L 165.393267 147.060002 
L 166.003214 146.968914 
L 166.613162 146.199881 
L 167.223109 146.452505 
L 167.833056 146.031122 
L 170.882792 145.626206 
L 171.492739 144.900001 
L 172.102686 145.470686 
L 173.32258 145.318655 
L 173.932528 144.610396 
L 174.542475 145.170004 
L 176.372316 145.882623 
L 176.982263 146.423154 
L 177.592211 146.03838 
L 179.422052 146.718191 
L 181.251894 148.267223 
L 181.861841 148.182193 
L 182.471788 148.685599 
L 183.081735 148.307009 
L 183.691682 148.804619 
L 184.301629 149.007859 
L 185.521524 148.835458 
L 186.131471 149.320403 
L 186.741418 149.233505 
L 188.57126 149.815867 
L 189.181207 149.172352 
L 189.791154 149.364878 
L 190.401101 149.005054 
L 191.011048 149.196524 
L 191.620995 149.65875 
L 192.230943 149.031389 
L 192.84089 149.489999 
L 193.450837 149.675546 
L 194.060784 149.591885 
L 194.670731 149.242816 
L 195.280678 149.426919 
L 195.890626 149.873024 
L 196.500573 150.052505 
L 197.11052 149.707745 
L 198.330414 149.545483 
L 198.940361 149.980909 
L 199.550309 149.642714 
L 200.770203 149.992467 
L 201.38015 149.405627 
L 201.990097 149.076 
L 202.600044 149.501946 
L 203.819939 149.84526 
L 204.429886 149.767074 
L 205.64978 148.630909 
L 206.869675 148.974333 
L 207.479622 149.386153 
L 208.699516 149.238304 
L 209.309463 149.404554 
L 210.529358 149.258413 
L 211.139305 149.4225 
L 211.749252 149.114688 
L 212.359199 149.278014 
L 212.969146 149.673333 
L 214.189041 149.528577 
L 214.798988 149.918048 
L 216.018882 149.315807 
L 217.238776 149.630403 
L 217.848724 150.011713 
L 218.458671 150.165003 
L 219.068618 149.868858 
L 219.678565 150.021497 
L 220.288512 149.728234 
L 220.898459 149.215779 
L 221.508407 149.369187 
L 222.118354 149.301629 
L 222.728301 149.672437 
L 224.558142 149.469392 
L 225.16809 149.61833 
L 226.387984 149.484904 
L 226.997931 149.63211 
L 227.607878 149.565845 
L 228.217825 149.288508 
L 228.827773 149.224017 
L 229.43772 149.369998 
L 230.047667 149.724136 
L 231.267561 149.593845 
L 231.877508 149.736353 
L 232.487456 150.084003 
L 233.097403 150.223698 
L 233.70735 150.56708 
L 234.317297 150.296114 
L 234.927244 150.636776 
L 236.147139 150.503705 
L 236.757086 150.638939 
L 237.367033 150.973568 
L 237.97698 150.906551 
L 238.586927 151.237894 
L 239.196874 151.368675 
L 239.806822 151.300974 
L 240.416769 151.430623 
L 241.026716 151.363183 
L 241.636663 151.491726 
L 242.24661 151.22969 
L 243.466505 151.098021 
L 244.686399 150.583733 
L 245.296346 150.520746 
L 245.906293 150.649094 
L 246.51624 150.58631 
L 247.126188 150.713577 
L 247.736135 150.651004 
L 248.956029 150.90258 
L 249.565976 150.465744 
L 250.175923 150.59132 
L 250.785871 150.901972 
L 251.395818 150.654704 
L 252.005765 150.778439 
L 252.615712 150.533183 
L 253.225659 150.839999 
L 253.835606 150.961934 
L 255.055501 150.476541 
L 255.665448 150.598468 
L 256.275395 150.358476 
L 258.715184 150.126797 
L 259.325131 150.247524 
L 259.935078 150.190316 
L 260.545025 150.310097 
L 261.154972 150.253041 
L 261.76492 150.547428 
L 262.374867 149.964999 
L 262.984814 150.258465 
L 263.594761 150.376201 
L 264.204708 150.666609 
L 264.814655 150.609511 
L 265.424603 150.72511 
L 266.03455 151.011817 
L 266.644497 150.782901 
L 267.864391 150.669735 
L 268.474338 150.443895 
L 269.084286 150.557913 
L 269.694233 150.839999 
L 270.30418 150.783914 
L 270.914127 150.560414 
L 272.743969 150.396597 
L 273.353916 150.508419 
L 273.963863 150.784903 
L 274.57381 150.73012 
L 275.183757 150.839999 
L 277.623546 150.623384 
L 278.233493 150.732004 
L 278.84344 150.678463 
L 279.453387 150.786305 
L 280.063335 150.732916 
L 280.673282 150.839999 
L 281.283229 150.786762 
L 281.893176 150.893092 
L 282.503123 150.681175 
L 283.11307 150.945585 
L 284.332965 151.155001 
L 284.942912 150.944707 
L 285.552859 151.205475 
L 286.162806 151.152399 
L 287.382701 151.35781 
L 288.602595 151.869977 
L 289.212542 151.661744 
L 289.822489 151.91561 
L 292.262278 151.701395 
L 292.872225 151.951763 
L 294.092119 151.845323 
L 294.702067 151.942917 
L 295.312014 152.189998 
L 295.921961 152.286173 
L 296.531908 151.934215 
L 297.751802 151.829532 
L 298.971697 152.316564 
L 299.581644 152.116366 
L 300.191591 152.210986 
L 300.801538 152.451629 
L 301.411485 152.252631 
L 302.021433 152.346169 
L 302.63138 152.003082 
L 303.241327 151.951763 
L 303.851274 152.189998 
L 305.681116 152.466837 
L 306.291063 152.271818 
L 306.90101 152.220609 
L 307.510957 152.454578 
L 308.730851 152.068502 
L 309.340799 152.159701 
L 309.950746 152.109404 
L 310.560693 152.340745 
L 311.17064 152.430599 
L 311.780587 152.379999 
L 312.390534 152.608965 
L 313.000482 152.279557 
L 313.610429 152.368677 
L 314.220376 152.318727 
L 314.830323 152.130729 
L 315.44027 152.219561 
L 316.050217 152.170338 
L 317.270112 152.620439 
L 319.099953 152.879569 
L 319.7099 152.829475 
L 320.319848 152.644299 
L 320.929795 152.594999 
L 321.539742 152.007222 
L 322.149689 152.094027 
L 322.759636 152.314469 
L 323.369583 152.266419 
L 323.979531 152.085181 
L 324.589478 152.304085 
L 325.809372 152.473883 
L 326.419319 152.161678 
L 330.079002 152.66483 
L 330.688949 152.48725 
L 334.348632 152.978007 
L 335.568527 152.883244 
L 336.178474 152.581346 
L 336.788421 152.535071 
L 338.008315 152.696252 
L 338.618263 152.650027 
L 339.22821 152.730005 
L 339.838157 152.558187 
L 340.448104 152.763455 
L 341.058051 152.592321 
L 342.277946 152.501537 
L 343.49784 152.659693 
L 344.107787 152.614457 
L 344.717734 152.445884 
L 345.327681 152.401307 
L 345.937629 152.479916 
L 346.547576 152.680908 
L 347.157523 152.636112 
L 347.76747 152.713707 
L 348.377417 152.912908 
L 348.987365 152.867901 
L 349.597312 152.580256 
L 350.207259 152.65731 
L 350.817206 152.613139 
L 351.427153 152.689788 
L 352.647048 152.241486 
L 353.256995 152.31844 
L 353.866942 152.514684 
L 354.476889 152.590741 
L 355.696783 152.979621 
L 356.306731 152.935611 
L 356.916678 152.773408 
L 358.746519 152.996637 
L 360.576361 152.866397 
L 361.796255 153.013307 
L 362.406202 152.970125 
L 363.016149 152.811166 
L 364.236044 152.726152 
L 364.845991 152.799151 
L 366.065885 152.714696 
L 367.895727 153.273806 
L 369.725568 153.486001 
L 369.725568 153.486001 
" style="fill:none;stroke:#ff7f0e;stroke-linecap:square;stroke-width:1.5;"/>
   </g>
   <g id="line2d_18">
    <path clip-path="url(#peb6c9ee366)" d="M 65.361932 188.64 
L 65.971879 160.289998 
L 66.581826 169.739997 
L 67.191773 160.289998 
L 67.80172 131.94 
L 68.411668 150.839999 
L 69.021615 148.139999 
L 69.631562 153.202505 
L 70.241509 150.839999 
L 70.851456 143.279997 
L 71.461403 147.403638 
L 72.071351 155.565002 
L 72.681298 158.109229 
L 73.291245 164.339998 
L 73.901192 162.180005 
L 74.511139 163.833753 
L 75.121086 168.628233 
L 75.731034 163.439998 
L 76.340981 167.750529 
L 76.950928 165.960001 
L 77.560875 161.639998 
L 78.170822 162.867277 
L 79.390717 160.289998 
L 80.000664 163.692005 
L 80.610611 162.470767 
L 81.220558 157.139998 
L 81.830505 158.265002 
L 82.440452 161.267585 
L 83.0504 162.180005 
L 83.660347 159.375483 
L 84.880241 161.149088 
L 85.490188 158.622351 
L 86.100135 157.860001 
L 86.710083 160.289998 
L 87.32003 159.523787 
L 87.929977 157.305792 
L 88.539924 156.655383 
L 89.149871 154.620003 
L 89.759819 151.300974 
L 90.369766 152.189998 
L 90.979713 149.081863 
L 92.809554 151.661744 
L 94.029449 150.839999 
L 94.639396 151.611431 
L 95.85929 150.839999 
L 96.469237 149.386153 
L 97.079185 146.917358 
L 97.689132 145.590002 
L 98.299079 147.403638 
L 98.909026 148.139999 
L 99.518973 146.861055 
L 100.12892 144.648619 
L 100.738868 145.394239 
L 101.348815 143.279997 
L 101.958762 143.094103 
L 102.568709 143.828715 
L 103.178656 141.839999 
L 104.398551 145.024614 
L 105.008498 144.826368 
L 106.228392 142.779709 
L 108.668181 142.177501 
L 109.278128 142.813978 
L 109.888075 142.667026 
L 110.498022 144.036002 
L 111.107969 143.87684 
L 112.937811 145.576712 
L 113.547758 146.823752 
L 115.3776 146.285782 
L 115.987547 145.439999 
L 116.597494 146.6153 
L 118.427335 146.115003 
L 119.037283 147.229885 
L 119.64723 145.800001 
L 120.257177 146.270768 
L 120.867124 146.115003 
L 121.477071 145.352907 
L 122.087018 145.210213 
L 123.306913 146.115003 
L 123.91686 145.96887 
L 125.136754 146.830909 
L 126.356649 146.53604 
L 126.966596 145.837058 
L 127.576543 145.702136 
L 128.18649 146.660198 
L 130.016332 146.247474 
L 130.626279 145.590002 
L 131.846173 146.37273 
L 132.45612 144.710271 
L 133.066067 144.596252 
L 133.676015 144.98602 
L 134.285962 143.379475 
L 134.895909 144.266092 
L 135.505856 144.648619 
L 136.115803 144.539999 
L 136.72575 144.91373 
L 137.945645 144.697505 
L 138.555592 143.654878 
L 139.165539 144.488359 
L 139.775486 144.847321 
L 140.995381 144.640804 
L 142.215275 145.333703 
L 143.435169 144.246981 
L 144.045116 144.588462 
L 144.655064 145.357563 
L 145.265011 145.255913 
L 145.874958 145.58211 
L 146.484905 145.057168 
L 147.704799 144.86427 
L 148.314747 144.356057 
L 148.924694 144.676957 
L 150.754535 144.405956 
L 151.364482 145.116759 
L 151.97443 144.628113 
L 152.584377 144.539999 
L 153.194324 144.844136 
L 153.804271 144.755752 
L 154.414218 145.439999 
L 155.024165 144.965674 
L 155.634113 145.258794 
L 156.24406 144.414 
L 157.463954 144.995922 
L 158.683848 144.826368 
L 159.293796 145.109036 
L 159.903743 144.661157 
L 160.51369 144.941274 
L 161.123637 144.141267 
L 162.343531 143.988755 
L 162.953479 144.266092 
L 163.563426 143.840003 
L 164.173373 144.114847 
L 164.78332 144.040615 
L 165.393267 144.65455 
L 166.003214 144.577952 
L 166.613162 145.181317 
L 167.833056 145.695622 
L 169.05295 145.534737 
L 169.662897 145.78535 
L 170.882792 146.92966 
L 172.102686 147.403638 
L 172.712633 146.995934 
L 173.32258 146.911351 
L 175.762369 147.82846 
L 176.982263 147.655764 
L 177.592211 147.877295 
L 178.202158 147.791614 
L 178.812105 147.100431 
L 179.422052 147.622982 
L 180.031999 147.840002 
L 180.641946 147.756315 
L 181.251894 147.376652 
L 181.861841 147.59156 
L 183.081735 146.845669 
L 183.691682 146.187698 
L 184.301629 146.404287 
L 184.911577 146.043043 
L 186.741418 145.831498 
L 187.961312 146.255349 
L 188.57126 146.184825 
L 189.181207 146.39294 
L 189.791154 146.045857 
L 190.401101 146.25262 
L 191.011048 146.183482 
L 191.620995 146.3876 
L 192.230943 146.861055 
L 192.84089 146.520004 
L 193.450837 146.4509 
L 194.670731 146.847046 
L 195.280678 147.307295 
L 195.890626 147.235817 
L 196.500573 147.427498 
L 197.11052 147.35613 
L 197.720467 147.025319 
L 198.330414 146.956443 
L 198.940361 147.403638 
L 199.550309 147.590225 
L 200.160256 148.030543 
L 200.770203 147.958388 
L 201.38015 148.39313 
L 201.990097 148.572002 
L 202.600044 149.000179 
L 205.64978 148.630909 
L 206.259727 148.070177 
L 206.869675 148.000946 
L 207.479622 148.416922 
L 208.089569 148.346812 
L 208.699516 147.796785 
L 209.309463 147.490637 
L 209.91941 146.948822 
L 211.749252 146.056182 
L 212.359199 146.232148 
L 212.969146 146.173335 
L 213.579093 146.347375 
L 214.189041 146.751429 
L 215.408935 147.090613 
L 216.018882 147.029518 
L 216.628829 146.513498 
L 217.238776 146.4552 
L 217.848724 146.849167 
L 219.068618 147.17953 
L 220.288512 147.060002 
L 220.898459 147.443906 
L 221.508407 146.942334 
L 222.118354 147.103954 
L 222.728301 146.607569 
L 223.338248 146.769231 
L 225.16809 145.953307 
L 225.778037 146.329776 
L 226.387984 145.847551 
L 226.997931 145.795261 
L 227.607878 145.531011 
L 228.217825 145.903433 
L 228.827773 145.640746 
L 229.43772 146.01 
L 230.047667 145.539629 
L 230.657614 145.906542 
L 231.267561 146.063076 
L 231.877508 146.425401 
L 233.70735 146.268521 
L 234.317297 146.013024 
L 234.927244 146.165807 
L 235.537191 145.912499 
L 236.147139 146.064554 
L 237.367033 145.964738 
L 238.586927 146.264212 
L 239.196874 146.214126 
L 239.806822 146.361949 
L 240.416769 146.311872 
L 241.636663 146.603792 
L 242.24661 146.358561 
L 242.856557 146.309177 
L 243.466505 146.647169 
L 244.076452 146.597143 
L 244.686399 146.73966 
L 246.51624 146.590671 
L 247.126188 146.352039 
L 247.736135 146.493001 
L 248.346082 145.879539 
L 248.956029 146.021127 
L 249.565976 146.348913 
L 250.785871 146.254428 
L 252.005765 146.530557 
L 253.225659 145.335147 
L 253.835606 145.474842 
L 254.445554 145.431322 
L 255.055501 145.751537 
L 255.665448 145.707417 
L 256.275395 145.844138 
L 257.495289 146.473864 
L 258.105237 146.428012 
L 258.715184 146.204157 
L 259.935078 146.115003 
L 261.154972 146.379135 
L 261.76492 146.334431 
L 262.984814 146.594769 
L 263.594761 146.201968 
L 264.204708 146.331744 
L 264.814655 146.287869 
L 266.03455 146.544548 
L 266.644497 146.329125 
L 267.864391 146.242701 
L 268.474338 146.369646 
L 269.084286 146.326565 
L 269.694233 145.946252 
L 271.524074 146.825839 
L 272.134021 146.948822 
L 272.743969 146.904812 
L 273.353916 146.36369 
L 274.57381 146.279825 
L 275.183757 146.073916 
L 276.403652 146.319248 
L 277.013599 146.603792 
L 278.233493 146.520004 
L 279.453387 146.759321 
L 280.063335 147.038584 
L 280.673282 146.835767 
L 281.283229 146.95352 
L 281.893176 146.911351 
L 282.503123 147.028234 
L 283.11307 146.986091 
L 283.723018 147.260057 
L 284.942912 147.489311 
L 285.552859 147.446356 
L 286.162806 147.559834 
L 286.772753 147.361157 
L 287.382701 147.318904 
L 287.992648 146.657215 
L 288.602595 146.462619 
L 289.212542 146.577229 
L 291.652331 146.419842 
L 292.262278 146.533032 
L 293.482172 146.4552 
L 294.092119 146.567394 
L 294.702067 146.528597 
L 295.921961 147.050024 
L 296.531908 147.159472 
L 297.141855 146.970714 
L 298.36175 147.188308 
L 301.411485 146.991802 
L 302.021433 146.807353 
L 302.63138 146.914621 
L 303.241327 146.731304 
L 303.851274 146.838217 
L 304.461221 146.656032 
L 305.681116 146.581521 
L 306.291063 146.401364 
L 306.90101 146.36494 
L 307.510957 146.04377 
L 308.120904 146.150531 
L 308.730851 145.973255 
L 309.340799 146.221046 
L 309.950746 146.185527 
L 310.560693 146.431569 
L 311.17064 146.395694 
L 312.390534 146.603792 
L 313.000482 146.567766 
L 313.610429 146.39294 
L 314.830323 146.322442 
L 315.44027 146.149492 
L 316.050217 146.390245 
L 316.660165 146.217971 
L 317.270112 146.32044 
L 317.880059 146.285782 
L 319.099953 146.760867 
L 319.7099 146.454119 
L 320.319848 146.554797 
L 320.929795 146.384998 
L 321.539742 146.620048 
L 322.149689 146.585264 
L 323.369583 146.783637 
L 325.809372 146.644905 
L 326.419319 146.47846 
L 327.639214 146.410996 
L 328.249161 146.50875 
L 328.859108 146.475106 
L 329.469055 146.572261 
L 330.079002 146.79931 
L 330.688949 146.635189 
L 331.298897 146.731304 
L 332.518791 146.147287 
L 333.738685 146.082855 
L 334.348632 146.30742 
L 335.568527 146.498113 
L 336.178474 146.720227 
L 336.788421 146.559959 
L 337.398368 146.654097 
L 338.008315 146.494691 
L 338.618263 146.462272 
L 339.22821 146.177999 
L 339.838157 146.272154 
L 340.448104 146.240445 
L 341.058051 146.459205 
L 342.277946 146.644618 
L 344.107787 147.29109 
L 345.327681 147.224351 
L 345.937629 147.437181 
L 346.547576 147.526368 
L 347.157523 147.737626 
L 347.76747 147.825774 
L 348.987365 147.514252 
L 349.597312 147.723727 
L 350.817206 147.656423 
L 351.427153 147.743616 
L 352.0371 147.589684 
L 352.647048 147.556531 
L 353.256995 147.643386 
L 355.086836 147.544415 
L 355.696783 147.749437 
L 356.306731 147.71636 
L 356.916678 147.920165 
L 358.136572 147.500083 
L 359.356466 147.670439 
L 359.966414 147.872234 
L 360.576361 147.839385 
L 361.186308 147.573336 
L 361.796255 147.774091 
L 362.406202 147.857829 
L 364.236044 147.760573 
L 364.845991 147.958904 
L 365.455938 147.926409 
L 366.675832 148.09091 
L 367.28578 147.944034 
L 368.505674 147.879762 
L 369.725568 148.042802 
L 369.725568 148.042802 
" style="fill:none;stroke:#2ca02c;stroke-linecap:square;stroke-width:1.5;"/>
   </g>
   <g id="line2d_19">
    <path clip-path="url(#peb6c9ee366)" d="M 65.361932 188.64 
L 65.971879 188.64 
L 66.581826 169.739997 
L 67.191773 188.64 
L 67.80172 188.64 
L 68.411668 160.289998 
L 69.021615 164.339998 
L 69.631562 174.465001 
L 70.241509 176.040001 
L 70.851456 171.630004 
L 72.071351 141.389999 
L 72.681298 140.663076 
L 73.291245 144.089999 
L 73.901192 139.500001 
L 75.121086 138.610588 
L 75.731034 138.24 
L 76.340981 131.94 
L 76.950928 129.105003 
L 77.560875 131.94 
L 78.170822 137.094549 
L 78.780769 134.40522 
L 79.390717 136.665004 
L 80.000664 136.476001 
L 80.610611 134.120769 
L 81.830505 138.015004 
L 82.440452 139.760694 
L 84.270294 139.027502 
L 84.880241 140.530909 
L 85.490188 143.613529 
L 86.100135 144.900001 
L 87.32003 144.199464 
L 87.929977 146.861055 
L 89.759819 149.918048 
L 90.369766 149.489999 
L 91.58966 151.269544 
L 92.199607 150.839999 
L 92.809554 149.196524 
L 94.639396 151.611431 
L 95.249343 150.084003 
L 96.469237 151.566922 
L 97.689132 150.839999 
L 98.299079 149.465454 
L 99.518973 148.850531 
L 100.12892 149.536552 
L 101.348815 152.730005 
L 101.958762 153.318686 
L 102.568709 154.802906 
L 103.178656 155.339998 
L 104.398551 151.130769 
L 105.618445 152.250451 
L 106.228392 153.61941 
L 106.838339 153.305219 
L 107.448286 153.810002 
L 108.058234 153.50197 
L 108.668181 153.989998 
L 109.278128 155.241374 
L 110.498022 156.132004 
L 111.107969 155.813689 
L 112.937811 152.753924 
L 113.547758 153.911254 
L 114.157705 153.64 
L 114.767652 154.758296 
L 115.3776 153.117111 
L 116.597494 152.618825 
L 119.037283 156.786071 
L 119.64723 157.770003 
L 120.257177 155.616921 
L 123.306913 157.336876 
L 123.91686 158.244125 
L 124.526807 156.818574 
L 125.136754 155.994548 
L 125.746701 155.753997 
L 126.356649 154.95683 
L 126.966596 155.287057 
L 127.576543 155.060388 
L 128.18649 154.292885 
L 128.796437 154.080005 
L 129.406384 153.336226 
L 130.016332 154.196077 
L 130.626279 154.515 
L 131.236226 154.30789 
L 131.846173 154.620003 
L 132.45612 154.415674 
L 133.066067 154.721247 
L 133.676015 154.01788 
L 134.285962 154.818951 
L 134.895909 154.620003 
L 135.505856 153.935688 
L 136.115803 154.232306 
L 137.335698 153.857645 
L 137.945645 154.620003 
L 138.555592 154.432563 
L 139.165539 153.318686 
L 139.775486 153.605858 
L 140.995381 153.259197 
L 141.605328 153.989998 
L 142.215275 154.262832 
L 144.045116 153.747691 
L 144.655064 154.014044 
L 145.265011 153.846822 
L 145.874958 154.108419 
L 146.484905 154.789253 
L 147.094852 154.199997 
L 147.704799 154.036324 
L 148.924694 152.894346 
L 150.754535 154.86128 
L 151.364482 154.300565 
L 151.97443 153.35119 
L 152.584377 153.596252 
L 153.194324 153.446899 
L 153.804271 153.687948 
L 154.414218 152.768575 
L 155.024165 153.39406 
L 155.634113 153.630605 
L 156.24406 154.242005 
L 156.854007 154.094309 
L 157.463954 153.202505 
L 158.073901 153.434116 
L 158.683848 152.926367 
L 159.293796 153.522585 
L 160.51369 153.247648 
L 162.953479 154.126956 
L 164.173373 155.246139 
L 164.78332 155.449759 
L 165.393267 154.963639 
L 167.223109 155.565002 
L 167.833056 156.096214 
L 168.443003 156.28765 
L 169.05295 156.145268 
L 169.662897 156.334187 
L 170.272845 155.865439 
L 170.882792 156.053792 
L 171.492739 156.563999 
L 172.102686 155.779775 
L 173.932528 155.380224 
L 174.542475 154.620003 
L 175.152422 154.807959 
L 176.982263 154.435106 
L 177.592211 154.620003 
L 178.202158 154.19323 
L 180.031999 154.740004 
L 181.251894 154.501262 
L 182.471788 154.855028 
L 183.081735 154.736912 
L 183.691682 154.910774 
L 184.301629 154.79357 
L 184.911577 154.96538 
L 185.521524 154.562728 
L 186.131471 153.30935 
L 187.351365 153.660895 
L 187.961312 153.553365 
L 189.791154 152.407323 
L 190.401101 152.858446 
L 191.011048 152.757397 
L 192.84089 154.080005 
L 193.450837 154.243797 
L 194.060784 154.673494 
L 195.890626 154.356278 
L 196.500573 153.989998 
L 197.11052 154.149675 
L 197.720467 154.567983 
L 198.940361 154.87773 
L 199.550309 155.287057 
L 201.38015 154.974378 
L 201.990097 155.375999 
L 202.600044 155.272305 
L 203.209992 155.4193 
L 203.819939 154.818951 
L 204.429886 154.719042 
L 206.869675 156.274766 
L 208.699516 156.686188 
L 209.309463 156.342535 
L 210.529358 156.612808 
L 211.139305 156.982501 
L 211.749252 156.643318 
L 212.359199 157.009833 
L 212.969146 156.440002 
L 214.798988 156.141221 
L 215.408935 156.272797 
L 216.018882 156.631937 
L 216.628829 156.760479 
L 217.238776 156.207605 
L 217.848724 155.885024 
L 218.458671 155.789998 
L 219.068618 155.919842 
L 219.678565 155.602203 
L 220.288512 155.731768 
L 220.898459 155.195859 
L 221.508407 155.32599 
L 222.118354 155.015584 
L 222.728301 154.926489 
L 224.558142 155.312522 
L 225.16809 155.654832 
L 226.997931 156.026839 
L 228.827773 157.022904 
L 229.43772 156.72 
L 230.047667 157.047009 
L 230.657614 156.954704 
L 231.267561 157.27846 
L 231.877508 156.772122 
L 233.097403 156.592176 
L 233.70735 156.912561 
L 235.537191 156.644999 
L 236.147139 156.153523 
L 237.367033 155.982406 
L 237.97698 156.297046 
L 239.196874 156.126715 
L 239.806822 155.647321 
L 240.416769 155.368125 
L 241.026716 155.287057 
L 241.636663 155.011038 
L 242.24661 155.321444 
L 242.856557 155.435548 
L 243.466505 155.355358 
L 244.076452 155.66143 
L 244.686399 155.773219 
L 245.906293 155.612731 
L 246.51624 155.343023 
L 248.346082 155.674881 
L 248.956029 155.408545 
L 250.175923 155.254148 
L 251.395818 154.731175 
L 252.005765 154.841628 
L 252.615712 155.135457 
L 253.225659 155.243883 
L 253.835606 155.534519 
L 254.445554 155.640967 
L 255.665448 155.489519 
L 256.885342 155.7 
L 257.495289 155.983674 
L 258.715184 155.832454 
L 259.325131 155.935295 
L 259.935078 155.683127 
L 260.545025 155.962433 
L 261.154972 156.063913 
L 261.76492 155.813689 
L 262.984814 156.015695 
L 263.594761 155.941843 
L 264.204708 155.695049 
L 264.814655 155.79549 
L 265.424603 155.722981 
L 266.03455 155.822729 
L 266.644497 156.093172 
L 267.864391 155.948112 
L 268.474338 156.21575 
L 269.084286 155.974033 
L 269.694233 156.071247 
L 270.30418 155.663146 
L 270.914127 155.59296 
L 271.524074 155.355933 
L 272.134021 155.287057 
L 272.743969 155.384871 
L 273.353916 155.647895 
L 274.57381 155.510059 
L 275.183757 155.277391 
L 275.793704 155.209943 
L 277.013599 155.402073 
L 277.623546 155.659774 
L 278.233493 155.753997 
L 279.453387 155.296537 
L 280.063335 155.230373 
L 280.673282 155.324748 
L 281.283229 155.57831 
L 282.503123 155.763528 
L 283.11307 155.221848 
L 283.723018 155.31493 
L 284.332965 154.934997 
L 284.942912 154.871301 
L 285.552859 154.964586 
L 286.162806 154.901159 
L 286.772753 154.682306 
L 287.382701 154.309318 
L 287.992648 154.55803 
L 288.602595 154.496404 
L 289.212542 154.743265 
L 290.432436 154.620003 
L 291.042384 154.406042 
L 292.872225 154.225834 
L 294.702067 154.499682 
L 295.921961 154.081425 
L 296.531908 154.023161 
L 297.141855 154.114021 
L 298.36175 153.998228 
L 298.971697 154.088437 
L 299.581644 154.030908 
L 300.191591 154.120569 
L 300.801538 154.063259 
L 302.021433 154.241034 
L 303.241327 154.707011 
L 304.461221 154.59115 
L 306.291063 154.849088 
L 308.120904 154.25053 
L 308.730851 154.336499 
L 309.340799 154.563446 
L 309.950746 154.507168 
L 310.560693 153.888391 
L 311.17064 153.69371 
L 311.780587 153.64 
L 312.390534 153.446899 
L 313.000482 153.39406 
L 313.610429 153.61941 
L 314.220376 153.70504 
L 315.44027 153.599124 
L 316.050217 153.40893 
L 316.660165 153.494239 
L 317.270112 153.168261 
L 317.880059 153.390359 
L 318.490006 153.202505 
L 319.099953 152.879569 
L 320.319848 152.779617 
L 320.929795 152.594999 
L 321.539742 152.545936 
L 322.149689 152.362754 
L 322.759636 152.448511 
L 323.369583 152.400141 
L 323.979531 152.21859 
L 324.589478 152.437181 
L 325.199425 152.521967 
L 326.419319 152.426012 
L 327.029266 152.510231 
L 328.249161 152.415003 
L 330.688949 152.747342 
L 331.298897 152.569982 
L 332.518791 152.475996 
L 333.738685 152.639998 
L 334.348632 152.593166 
L 334.95858 152.41856 
L 335.568527 152.500134 
L 336.178474 152.453935 
L 336.788421 152.535071 
L 337.398368 152.488999 
L 338.008315 152.569686 
L 338.618263 152.776306 
L 341.058051 153.092981 
L 341.667998 153.29617 
L 342.277946 153.249236 
L 342.887893 153.32684 
L 343.49784 153.155976 
L 344.107787 153.233453 
L 344.717734 153.18706 
L 345.327681 153.387393 
L 345.937629 153.340865 
L 346.547576 153.417277 
L 347.157523 153.370884 
L 347.76747 153.080299 
L 348.377417 153.278714 
L 348.987365 153.354594 
L 349.597312 153.187322 
L 350.207259 152.899618 
L 351.427153 152.810431 
L 352.0371 153.006878 
L 352.647048 153.082377 
L 353.256995 153.037674 
L 353.866942 153.112785 
L 354.476889 152.948842 
L 355.086836 153.023826 
L 356.306731 152.698372 
L 356.916678 152.891777 
L 357.526625 152.966255 
L 360.576361 152.749489 
L 361.186308 152.940004 
L 361.796255 152.547601 
L 362.406202 152.621563 
L 363.016149 152.811166 
L 363.626097 152.768575 
L 364.236044 152.841633 
L 364.845991 153.029639 
L 365.455938 152.871846 
L 366.065885 152.829475 
L 366.675832 152.67273 
L 367.28578 152.859562 
L 367.895727 152.817469 
L 368.505674 152.547829 
L 369.115621 152.50653 
L 369.725568 152.351999 
L 369.725568 152.351999 
" style="fill:none;stroke:#d62728;stroke-linecap:square;stroke-width:1.5;"/>
   </g>
   <g id="line2d_20">
    <path clip-path="url(#peb6c9ee366)" d="M 65.361932 188.64 
L 65.971879 160.289998 
L 66.581826 150.839999 
L 67.191773 160.289998 
L 67.80172 177.300003 
L 68.411668 160.289998 
L 69.021615 131.94 
L 69.631562 117.765005 
L 70.241509 119.340001 
L 70.851456 120.600003 
L 72.071351 131.94 
L 72.681298 127.578462 
L 73.291245 111.690002 
L 73.901192 113.040001 
L 74.511139 117.765005 
L 75.121086 125.269412 
L 75.731034 125.64 
L 76.340981 131.94 
L 76.950928 134.775006 
L 77.560875 134.64 
L 78.170822 126.78546 
L 78.780769 129.474788 
L 79.390717 129.577502 
L 80.000664 127.403999 
L 80.610611 129.759231 
L 81.220558 134.040005 
L 81.830505 133.965004 
L 82.440452 137.80552 
L 83.660347 137.4271 
L 84.880241 140.530909 
L 85.490188 143.613529 
L 86.100135 143.279997 
L 86.710083 141.389999 
L 87.32003 142.667026 
L 89.759819 141.620487 
L 90.369766 140.039999 
L 90.979713 141.170233 
L 91.58966 143.537733 
L 92.199607 144.539999 
L 92.809554 143.033482 
L 93.419502 144.003828 
L 94.029449 143.752505 
L 94.639396 145.825719 
L 95.85929 145.281175 
L 96.469237 146.115003 
L 97.689132 149.790004 
L 98.299079 150.496363 
L 99.518973 149.84526 
L 100.12892 150.514139 
L 100.738868 150.199323 
L 101.348815 151.784998 
L 101.958762 149.600655 
L 102.568709 146.572261 
L 103.178656 147.239999 
L 103.788603 146.115003 
L 104.398551 147.641544 
L 105.618445 148.865376 
L 106.228392 148.616469 
L 106.838339 149.196524 
L 107.448286 148.95 
L 108.668181 151.627501 
L 109.278128 150.581097 
L 109.888075 151.095411 
L 110.498022 152.351999 
L 111.107969 152.083423 
L 112.937811 153.471646 
L 113.547758 152.493755 
L 114.157705 152.239999 
L 114.767652 151.300974 
L 115.3776 151.067715 
L 115.987547 152.189998 
L 116.597494 151.28471 
L 117.207441 151.059773 
L 117.817388 150.18828 
L 119.037283 149.778201 
L 119.64723 150.210002 
L 120.257177 150.009229 
L 120.867124 150.429134 
L 121.477071 150.230322 
L 122.087018 150.638939 
L 123.306913 146.705628 
L 124.526807 146.404287 
L 125.746701 147.249005 
L 126.966596 149.172352 
L 127.576543 149.005054 
L 128.18649 149.386153 
L 128.796437 149.220004 
L 130.016332 149.956821 
L 130.626279 150.839999 
L 131.236226 150.146424 
L 131.846173 149.980909 
L 132.45612 150.329191 
L 133.066067 151.177501 
L 134.285962 151.834737 
L 134.895909 150.675649 
L 136.115803 150.355383 
L 136.72575 150.679832 
L 137.335698 150.522352 
L 138.555592 151.152399 
L 139.775486 150.839999 
L 140.385433 150.230322 
L 140.995381 150.084003 
L 141.605328 150.839999 
L 142.825222 150.544691 
L 143.435169 150.839999 
L 144.045116 150.694617 
L 144.655064 151.417105 
L 145.265011 151.699089 
L 146.484905 151.404178 
L 147.094852 152.1 
L 147.704799 151.951763 
L 149.534641 152.7436 
L 150.754535 151.644255 
L 151.364482 151.505498 
L 151.97443 150.972166 
L 152.584377 150.839999 
L 153.194324 151.491726 
L 153.804271 151.35781 
L 155.024165 151.861621 
L 155.634113 151.347384 
L 156.24406 151.218005 
L 156.854007 151.46583 
L 157.463954 152.083423 
L 158.073901 152.322351 
L 159.293796 152.059352 
L 159.903743 152.65731 
L 160.51369 152.164204 
L 161.123637 152.753924 
L 161.733584 152.623016 
L 162.953479 153.070439 
L 163.563426 152.589998 
L 164.173373 151.419758 
L 164.78332 151.646705 
L 165.393267 150.839999 
L 166.003214 150.726149 
L 166.613162 150.27413 
L 167.223109 150.165003 
L 167.833056 149.721661 
L 169.05295 150.839999 
L 170.272845 150.6215 
L 170.882792 149.862412 
L 171.492739 149.436001 
L 172.102686 149.65875 
L 172.712633 149.558646 
L 173.32258 149.778201 
L 173.932528 149.678546 
L 174.542475 149.895 
L 175.152422 149.482547 
L 176.372316 149.290823 
L 176.982263 149.504675 
L 177.592211 148.796762 
L 178.202158 149.010968 
L 178.812105 148.919677 
L 179.422052 149.13096 
L 180.031999 148.139999 
L 180.641946 148.651583 
L 181.251894 148.267223 
L 181.861841 147.59156 
L 182.471788 148.098033 
L 183.081735 148.307009 
L 184.301629 148.139999 
L 184.911577 148.345587 
L 185.521524 148.835458 
L 186.131471 149.035479 
L 186.741418 148.95 
L 187.351365 149.429555 
L 188.57126 148.698619 
L 189.181207 148.894415 
L 191.011048 148.648694 
L 191.620995 148.023175 
L 192.230943 148.21751 
L 194.060784 147.18481 
L 194.670731 147.113239 
L 195.280678 146.512434 
L 195.890626 146.708374 
L 196.500573 146.377504 
L 197.11052 146.572261 
L 197.720467 146.505142 
L 198.330414 146.179731 
L 198.940361 145.084095 
L 199.550309 145.537737 
L 200.770203 145.415784 
L 201.38015 145.60875 
L 201.990097 146.051999 
L 202.600044 145.487786 
L 203.209992 145.428111 
L 203.819939 145.120265 
L 204.429886 145.310307 
L 205.039833 145.005655 
L 206.259727 145.381811 
L 206.869675 145.080775 
L 208.089569 145.45149 
L 208.699516 145.394239 
L 209.309463 145.815952 
L 210.529358 146.174315 
L 211.749252 146.99726 
L 212.359199 146.466446 
L 212.969146 146.873331 
L 213.579093 146.812135 
L 214.189041 147.214289 
L 214.798988 147.152197 
L 215.408935 147.320163 
L 216.018882 147.029518 
L 216.628829 147.19663 
L 217.238776 147.589203 
L 217.848724 147.300958 
L 218.458671 147.465003 
L 219.068618 147.403638 
L 219.678565 147.565985 
L 220.288512 147.949416 
L 222.118354 148.422557 
L 222.728301 148.796762 
L 223.338248 148.95 
L 224.558142 149.685803 
L 225.16809 149.833922 
L 225.778037 149.551363 
L 226.387984 149.698865 
L 228.217825 149.500078 
L 228.827773 149.856362 
L 229.43772 149.580005 
L 230.047667 149.933358 
L 230.657614 149.867211 
L 231.267561 149.593845 
L 231.877508 149.529422 
L 232.487456 149.259275 
L 233.70735 149.134222 
L 234.317297 149.480291 
L 234.927244 149.214191 
L 235.537191 149.557497 
L 236.147139 149.494806 
L 236.757086 149.633623 
L 237.367033 149.370742 
L 237.97698 149.708666 
L 238.586927 149.248426 
L 239.196874 148.989651 
L 239.806822 149.127809 
L 240.416769 149.461881 
L 241.026716 149.205049 
L 241.636663 149.341035 
L 242.24661 149.670933 
L 242.856557 149.61021 
L 243.466505 149.743417 
L 244.076452 149.104287 
L 245.906293 148.930914 
L 247.126188 148.437994 
L 247.736135 148.572002 
L 249.565976 149.530097 
L 250.175923 149.099209 
L 250.785871 149.414752 
L 251.395818 149.357646 
L 253.225659 149.739032 
L 254.445554 149.259934 
L 255.055501 149.386153 
L 255.665448 149.149269 
L 256.275395 149.094461 
L 256.885342 149.220004 
L 257.495289 148.806461 
L 258.105237 148.574385 
L 258.715184 148.700376 
L 259.325131 148.4701 
L 259.935078 148.595626 
L 260.545025 148.367107 
L 261.76492 148.616469 
L 262.984814 148.513848 
L 263.594761 148.636933 
L 264.204708 148.932663 
L 264.814655 149.05372 
L 265.424603 149.0017 
L 266.03455 148.778182 
L 266.644497 148.727311 
L 269.084286 149.203883 
L 269.694233 149.489999 
L 270.30418 149.269675 
L 270.914127 149.218407 
L 271.524074 149.000179 
L 272.134021 148.95 
L 272.743969 149.066393 
L 273.353916 149.347896 
L 273.963863 149.131839 
L 274.57381 149.246686 
L 275.183757 149.525222 
L 275.793704 149.310517 
L 278.233493 149.112001 
L 278.84344 149.224617 
L 279.453387 149.175512 
L 280.063335 149.287308 
L 280.673282 149.558646 
L 281.283229 149.349298 
L 281.893176 149.61893 
L 282.503123 149.56941 
L 283.11307 149.83693 
L 283.723018 149.4712 
L 286.772753 149.230388 
L 287.382701 149.493699 
L 287.992648 149.600655 
L 288.602595 149.552538 
L 289.212542 149.812825 
L 289.822489 149.610734 
L 291.042384 150.126797 
L 291.652331 150.230322 
L 292.262278 150.485311 
L 293.482172 150.688804 
L 295.921961 150.490921 
L 296.531908 150.740529 
L 297.141855 150.542367 
L 298.36175 150.741306 
L 298.971697 150.544691 
L 300.191591 151.035854 
L 300.801538 150.839999 
L 301.411485 150.937424 
L 302.021433 150.888589 
L 302.63138 150.985388 
L 303.241327 150.791662 
L 303.851274 150.743571 
L 304.461221 150.839999 
L 305.681116 150.744306 
L 306.291063 150.839999 
L 306.90101 150.792397 
L 307.510957 150.88749 
L 308.120904 151.124213 
L 309.340799 151.028529 
L 309.950746 151.263139 
L 311.17064 151.448172 
L 311.780587 151.400004 
L 312.390534 151.212412 
L 313.000482 151.304379 
L 314.220376 151.209683 
L 314.830323 151.300974 
L 315.44027 151.52978 
L 316.050217 151.482238 
L 316.660165 151.297628 
L 317.270112 151.387829 
L 317.880059 151.204335 
L 318.490006 151.294324 
L 319.099953 151.247914 
L 320.929795 151.920004 
L 321.539742 152.007222 
L 322.149689 151.825308 
L 322.759636 151.376169 
L 323.369583 151.196604 
L 323.979531 151.28471 
L 324.589478 151.239296 
L 325.199425 151.326887 
L 325.809372 151.281592 
L 326.419319 151.500842 
L 327.639214 151.146966 
L 328.859108 151.320136 
L 329.469055 151.536776 
L 330.079002 151.361384 
L 330.688949 151.576925 
L 331.298897 151.531994 
L 331.908844 151.616711 
L 332.518791 151.830208 
L 333.128738 151.784998 
L 333.738685 151.868575 
L 334.348632 151.566922 
L 334.95858 151.650609 
L 335.568527 151.606218 
L 336.178474 151.68944 
L 336.788421 151.645159 
L 337.398368 151.727925 
L 338.618263 151.639777 
L 339.838157 151.803856 
L 341.667998 151.297932 
L 342.277946 151.380005 
L 342.887893 151.213029 
L 343.49784 151.170851 
L 344.107787 151.005066 
L 344.717734 151.210587 
L 345.327681 151.291959 
L 345.937629 151.249976 
L 347.157523 150.921641 
L 348.377417 151.083869 
L 349.597312 151.001889 
L 350.817206 151.404178 
L 351.427153 151.362769 
L 352.647048 151.520723 
L 353.256995 151.479323 
L 355.086836 150.998822 
L 355.696783 151.077735 
L 357.526625 150.603749 
L 358.136572 150.682831 
L 359.356466 150.605219 
L 359.966414 150.683803 
L 360.576361 150.878974 
L 362.406202 151.111109 
L 363.626097 151.380005 
L 364.236044 151.340405 
L 364.845991 151.416218 
L 365.455938 151.261703 
L 366.065885 151.337372 
L 366.675832 151.527271 
L 367.28578 151.48778 
L 367.895727 151.220286 
L 368.505674 151.409281 
L 369.725568 151.331398 
L 369.725568 151.331398 
" style="fill:none;stroke:#9467bd;stroke-linecap:square;stroke-width:1.5;"/>
   </g>
   <g id="line2d_21">
    <path clip-path="url(#peb6c9ee366)" d="M 65.361932 18.54 
L 65.971879 103.590002 
L 66.581826 131.94 
L 67.191773 146.115003 
L 67.80172 131.94 
L 68.411668 150.839999 
L 69.021615 164.339998 
L 69.631562 153.202505 
L 70.241509 157.139998 
L 70.851456 160.289998 
L 72.071351 155.565002 
L 72.681298 153.747691 
L 73.291245 160.289998 
L 73.901192 154.620003 
L 74.511139 156.746251 
L 75.121086 148.616469 
L 76.340981 152.829475 
L 77.560875 156.239998 
L 78.170822 160.289998 
L 78.780769 161.522608 
L 79.390717 155.565002 
L 80.000664 154.620003 
L 81.220558 157.139998 
L 81.830505 156.239998 
L 82.440452 151.491726 
L 83.0504 150.839999 
L 83.660347 152.059352 
L 84.270294 151.430623 
L 84.880241 154.276367 
L 85.490188 150.284116 
L 86.100135 149.760002 
L 86.710083 147.689999 
L 87.32003 147.264323 
L 87.929977 145.368952 
L 88.539924 145.024614 
L 89.149871 146.115003 
L 89.759819 145.769272 
L 90.369766 148.139999 
L 90.979713 147.76326 
L 91.58966 146.115003 
L 92.199607 147.060002 
L 93.419502 144.003828 
L 94.029449 143.752505 
L 94.639396 142.354287 
L 95.85929 146.39294 
L 96.469237 147.205383 
L 97.079185 149.056981 
L 97.689132 148.740002 
L 98.299079 149.465454 
L 98.909026 148.139999 
L 99.518973 147.855793 
L 100.12892 146.603792 
L 100.738868 146.355258 
L 101.348815 145.170004 
L 102.568709 146.572261 
L 103.788603 149.65875 
L 104.398551 148.513848 
L 105.618445 149.71164 
L 106.228392 148.616469 
L 106.838339 146.731304 
L 107.448286 146.520004 
L 108.058234 147.113239 
L 108.668181 146.115003 
L 109.278128 145.920821 
L 109.888075 144.965674 
L 110.498022 144.791998 
L 111.107969 146.115003 
L 111.717917 145.194548 
L 112.327864 145.024614 
L 113.547758 143.279997 
L 114.157705 144.539999 
L 114.767652 145.077809 
L 115.3776 146.285782 
L 116.597494 145.948238 
L 117.207441 144.466747 
L 119.037283 144.044493 
L 119.64723 143.279997 
L 120.257177 143.778461 
L 120.867124 143.649783 
L 121.477071 142.914191 
L 122.696966 142.683163 
L 124.526807 144.089999 
L 125.746701 143.846999 
L 127.576543 145.151653 
L 128.18649 146.115003 
L 129.406384 146.917358 
L 130.016332 146.777385 
L 131.236226 147.545505 
L 131.846173 147.403638 
L 132.45612 147.775139 
L 133.066067 147.633754 
L 134.895909 148.703477 
L 135.505856 149.536552 
L 136.72575 149.238304 
L 137.335698 150.045881 
L 137.945645 149.4225 
L 138.555592 149.74661 
L 139.165539 150.530167 
L 140.385433 150.230322 
L 140.995381 150.537602 
L 141.605328 150.389999 
L 142.215275 150.691179 
L 143.435169 152.158602 
L 144.045116 152.439234 
L 144.655064 151.849928 
L 145.265011 152.558187 
L 145.874958 151.550531 
L 147.704799 153.61941 
L 148.314747 153.46117 
L 149.534641 152.335684 
L 150.144588 153 
L 150.754535 152.850639 
L 151.364482 153.10268 
L 152.584377 154.383754 
L 153.194324 154.228969 
L 153.804271 154.464661 
L 155.634113 154.011146 
L 156.24406 154.242005 
L 156.854007 153.718812 
L 157.463954 153.575526 
L 158.073901 153.804704 
L 159.293796 153.522585 
L 159.903743 153.747691 
L 160.51369 153.247648 
L 161.123637 153.112785 
L 161.733584 153.336226 
L 162.343531 152.84813 
L 162.953479 153.070439 
L 163.563426 153.64 
L 164.173373 153.854722 
L 165.393267 152.901823 
L 167.223109 152.527501 
L 169.05295 153.161054 
L 169.662897 153.037674 
L 170.272845 152.587978 
L 170.882792 152.795172 
L 171.492739 152.675999 
L 172.102686 152.880346 
L 173.932528 154.429944 
L 174.542475 153.675004 
L 175.152422 153.554919 
L 175.762369 153.124614 
L 176.372316 153.628527 
L 176.982263 152.894346 
L 177.592211 153.39406 
L 178.202158 153.583553 
L 178.812105 153.46781 
L 179.422052 152.146917 
L 180.031999 152.340001 
L 180.641946 151.934215 
L 181.861841 152.316564 
L 182.471788 151.62342 
L 183.081735 152.106497 
L 183.691682 152.293845 
L 184.301629 151.900715 
L 184.911577 151.799395 
L 185.521524 151.412728 
L 186.131471 151.884729 
L 186.741418 151.784998 
L 187.351365 151.968357 
L 187.961312 151.588517 
L 189.791154 152.960493 
L 190.401101 152.583205 
L 191.011048 152.757397 
L 191.620995 152.65731 
L 192.230943 152.286891 
L 192.84089 152.460002 
L 193.450837 152.900193 
L 194.060784 153.068775 
L 195.280678 152.871306 
L 195.890626 152.510231 
L 197.11052 152.84323 
L 197.720467 152.747342 
L 198.940361 153.073641 
L 199.550309 151.951763 
L 200.160256 152.117025 
L 201.38015 151.936876 
L 201.990097 152.1 
L 202.600044 152.010796 
L 203.209992 151.422825 
L 203.819939 151.834737 
L 204.429886 151.747865 
L 205.039833 151.90826 
L 205.64978 151.576368 
L 206.869675 151.407811 
L 207.479622 150.839999 
L 208.089569 150.518296 
L 208.699516 150.920086 
L 209.91941 150.760587 
L 211.139305 150.131249 
L 211.749252 150.526306 
L 212.359199 150.449505 
L 212.969146 150.606672 
L 213.579093 150.530167 
L 214.189041 150.917146 
L 215.408935 150.304377 
L 216.018882 150.230322 
L 216.628829 150.384583 
L 217.848724 150.237613 
L 218.458671 149.939999 
L 219.068618 150.092967 
L 219.678565 150.021497 
L 220.898459 150.323201 
L 221.508407 150.692919 
L 222.118354 150.839999 
L 222.728301 150.548112 
L 223.338248 150.694617 
L 223.948195 150.622759 
L 225.16809 150.049506 
L 226.387984 150.340758 
L 226.997931 150.271578 
L 227.607878 150.627642 
L 228.217825 150.346343 
L 228.827773 149.856362 
L 229.43772 150.000003 
L 230.047667 149.514906 
L 230.657614 149.241836 
L 231.267561 148.763076 
L 231.877508 148.908617 
L 232.487456 149.259275 
L 233.70735 148.724836 
L 234.927244 149.010968 
L 236.147139 149.696584 
L 237.367033 149.971801 
L 237.97698 149.509017 
L 238.586927 149.447374 
L 239.806822 149.720486 
L 240.416769 149.65875 
L 241.026716 149.989831 
L 241.636663 149.73207 
L 242.24661 149.865775 
L 242.856557 150.192741 
L 243.466505 149.549902 
L 244.076452 149.875719 
L 245.296346 150.137637 
L 245.906293 149.885452 
L 247.126188 150.523948 
L 248.346082 150.023719 
L 249.565976 149.904361 
L 250.175923 150.21829 
L 250.785871 150.158362 
L 252.615712 150.533183 
L 253.225659 150.47301 
L 253.835606 150.047419 
L 254.445554 150.353829 
L 255.055501 150.476541 
L 255.665448 150.417314 
L 256.275395 150.539047 
L 256.885342 150.120004 
L 257.495289 150.062466 
L 258.105237 150.184165 
L 258.715184 150.483402 
L 259.325131 150.603014 
L 259.935078 150.544691 
L 260.545025 150.663365 
L 261.154972 150.253041 
L 261.76492 150.196349 
L 262.374867 150.49 
L 262.984814 150.258465 
L 263.594761 150.376201 
L 264.204708 149.799636 
L 264.814655 149.918048 
L 265.424603 149.863409 
L 266.644497 150.097707 
L 267.254444 149.87223 
L 267.864391 149.988648 
L 268.474338 149.595095 
L 269.694233 149.489999 
L 270.30418 149.774424 
L 270.914127 149.721661 
L 271.524074 150.003721 
L 272.743969 149.897771 
L 273.963863 149.462447 
L 274.57381 149.576339 
L 275.183757 149.525222 
L 276.403652 149.750666 
L 277.013599 149.373623 
L 279.453387 149.819829 
L 280.063335 150.090424 
L 280.673282 149.558646 
L 281.283229 149.509017 
L 281.893176 149.141124 
L 282.503123 148.934116 
L 283.11307 148.88665 
L 283.723018 148.523565 
L 284.942912 148.431691 
L 285.552859 148.072872 
L 286.162806 148.184626 
L 286.772753 148.451537 
L 287.992648 148.671151 
L 288.602595 148.62556 
L 289.212542 148.272064 
L 289.822489 148.074148 
L 291.042384 147.987174 
L 291.652331 148.096453 
L 292.262278 148.053135 
L 292.872225 147.858454 
L 293.482172 148.118403 
L 294.092119 147.924576 
L 294.702067 147.882179 
L 295.312014 147.540004 
L 297.141855 147.863625 
L 297.751802 148.1188 
L 298.36175 147.78047 
L 298.971697 147.739222 
L 299.581644 147.992725 
L 300.191591 147.951139 
L 302.021433 148.264934 
L 302.63138 148.223077 
L 303.241327 148.47146 
L 303.851274 148.429291 
L 304.461221 148.531608 
L 305.071168 148.345587 
L 306.291063 148.835458 
L 306.90101 148.935722 
L 308.120904 149.418951 
L 308.730851 149.517002 
L 309.340799 149.04898 
L 309.950746 148.724329 
L 310.560693 148.823376 
L 311.17064 149.062279 
L 312.390534 149.257247 
L 313.000482 149.493319 
L 313.610429 149.450297 
L 314.220376 149.546117 
L 314.830323 149.779756 
L 315.44027 149.460436 
L 316.660165 149.650174 
L 317.270112 149.470439 
L 317.880059 149.428195 
L 319.099953 149.888207 
L 319.7099 149.980909 
L 320.319848 149.937853 
L 320.929795 150.165003 
L 321.539742 150.256387 
L 322.759636 150.705956 
L 323.979531 150.884474 
L 324.589478 150.839999 
L 325.199425 150.928527 
L 325.809372 150.884161 
L 326.419319 151.104341 
L 327.029266 151.059773 
L 327.639214 151.146966 
L 328.249161 151.102499 
L 328.859108 150.927302 
L 329.469055 150.62226 
L 330.079002 150.448964 
L 330.688949 150.536563 
L 331.298897 150.494005 
L 331.908844 150.710552 
L 332.518791 150.538633 
L 333.128738 150.238636 
L 333.738685 150.068575 
L 334.95858 150.242708 
L 335.568527 150.073788 
L 336.788421 150.24673 
L 337.398368 149.952081 
L 338.008315 150.038437 
L 338.618263 149.998127 
L 339.22821 150.084003 
L 340.448104 150.003721 
L 341.058051 150.214176 
L 341.667998 150.173925 
L 342.277946 150.258465 
L 347.157523 149.941942 
L 347.76747 149.780947 
L 348.377417 149.74258 
L 349.597312 150.151991 
L 350.207259 150.234234 
L 351.427153 149.915108 
L 355.086836 150.403238 
L 355.696783 150.364533 
L 356.306731 150.563219 
L 356.916678 150.405976 
L 357.526625 150.603749 
L 358.136572 150.682831 
L 358.746519 150.87921 
L 361.186308 150.256666 
L 361.796255 150.451913 
L 362.406202 150.181597 
L 363.016149 150.260248 
L 363.626097 150.107144 
L 364.236044 150.185627 
L 364.845991 149.918048 
L 365.455938 150.111605 
L 366.065885 150.074819 
L 366.675832 149.923641 
L 368.505674 150.156867 
L 369.725568 149.970601 
L 369.725568 149.970601 
" style="fill:none;stroke:#8c564b;stroke-linecap:square;stroke-width:1.5;"/>
   </g>
   <g id="line2d_22">
    <path clip-path="url(#peb6c9ee366)" d="M 50.14375 150.651001 
L 384.94375 150.651001 
" style="fill:none;stroke:#000000;stroke-dasharray:5.55,2.4;stroke-dashoffset:0;stroke-width:1.5;"/>
   </g>
   <g id="patch_3">
    <path d="M 50.14375 256.68 
L 50.14375 7.2 
" style="fill:none;stroke:#000000;stroke-linecap:square;stroke-linejoin:miter;stroke-width:0.8;"/>
   </g>
   <g id="patch_4">
    <path d="M 384.94375 256.68 
L 384.94375 7.2 
" style="fill:none;stroke:#000000;stroke-linecap:square;stroke-linejoin:miter;stroke-width:0.8;"/>
   </g>
   <g id="patch_5">
    <path d="M 50.14375 256.68 
L 384.94375 256.68 
" style="fill:none;stroke:#000000;stroke-linecap:square;stroke-linejoin:miter;stroke-width:0.8;"/>
   </g>
   <g id="patch_6">
    <path d="M 50.14375 7.2 
L 384.94375 7.2 
" style="fill:none;stroke:#000000;stroke-linecap:square;stroke-linejoin:miter;stroke-width:0.8;"/>
   </g>
   <g id="legend_1">
    <g id="patch_7">
     <path d="M 302.089063 103.26875 
L 377.94375 103.26875 
Q 379.94375 103.26875 379.94375 101.26875 
L 379.94375 14.2 
Q 379.94375 12.2 377.94375 12.2 
L 302.089063 12.2 
Q 300.089063 12.2 300.089063 14.2 
L 300.089063 101.26875 
Q 300.089063 103.26875 302.089063 103.26875 
z
" style="fill:#ffffff;opacity:0.8;stroke:#cccccc;stroke-linejoin:miter;"/>
    </g>
    <g id="line2d_23">
     <path d="M 304.089063 20.298438 
L 324.089063 20.298438 
" style="fill:none;stroke:#1f77b4;stroke-linecap:square;stroke-width:1.5;"/>
    </g>
    <g id="line2d_24"/>
    <g id="text_18">
     <!-- P(die=1) -->
     <g transform="translate(332.089063 23.798438)scale(0.1 -0.1)">
      <defs>
       <path d="M 19.671875 64.796875 
L 19.671875 37.40625 
L 32.078125 37.40625 
Q 38.96875 37.40625 42.71875 40.96875 
Q 46.484375 44.53125 46.484375 51.125 
Q 46.484375 57.671875 42.71875 61.234375 
Q 38.96875 64.796875 32.078125 64.796875 
z
M 9.8125 72.90625 
L 32.078125 72.90625 
Q 44.34375 72.90625 50.609375 67.359375 
Q 56.890625 61.8125 56.890625 51.125 
Q 56.890625 40.328125 50.609375 34.8125 
Q 44.34375 29.296875 32.078125 29.296875 
L 19.671875 29.296875 
L 19.671875 0 
L 9.8125 0 
z
" id="DejaVuSans-80"/>
       <path d="M 31 75.875 
Q 24.46875 64.65625 21.28125 53.65625 
Q 18.109375 42.671875 18.109375 31.390625 
Q 18.109375 20.125 21.3125 9.0625 
Q 24.515625 -2 31 -13.1875 
L 23.1875 -13.1875 
Q 15.875 -1.703125 12.234375 9.375 
Q 8.59375 20.453125 8.59375 31.390625 
Q 8.59375 42.28125 12.203125 53.3125 
Q 15.828125 64.359375 23.1875 75.875 
z
" id="DejaVuSans-40"/>
       <path d="M 10.59375 45.40625 
L 73.1875 45.40625 
L 73.1875 37.203125 
L 10.59375 37.203125 
z
M 10.59375 25.484375 
L 73.1875 25.484375 
L 73.1875 17.1875 
L 10.59375 17.1875 
z
" id="DejaVuSans-61"/>
       <path d="M 8.015625 75.875 
L 15.828125 75.875 
Q 23.140625 64.359375 26.78125 53.3125 
Q 30.421875 42.28125 30.421875 31.390625 
Q 30.421875 20.453125 26.78125 9.375 
Q 23.140625 -1.703125 15.828125 -13.1875 
L 8.015625 -13.1875 
Q 14.5 -2 17.703125 9.0625 
Q 20.90625 20.125 20.90625 31.390625 
Q 20.90625 42.671875 17.703125 53.65625 
Q 14.5 64.65625 8.015625 75.875 
z
" id="DejaVuSans-41"/>
      </defs>
      <use xlink:href="#DejaVuSans-80"/>
      <use x="60.302734" xlink:href="#DejaVuSans-40"/>
      <use x="99.316406" xlink:href="#DejaVuSans-100"/>
      <use x="162.792969" xlink:href="#DejaVuSans-105"/>
      <use x="190.576172" xlink:href="#DejaVuSans-101"/>
      <use x="252.099609" xlink:href="#DejaVuSans-61"/>
      <use x="335.888672" xlink:href="#DejaVuSans-49"/>
      <use x="399.511719" xlink:href="#DejaVuSans-41"/>
     </g>
    </g>
    <g id="line2d_25">
     <path d="M 304.089063 34.976563 
L 324.089063 34.976563 
" style="fill:none;stroke:#ff7f0e;stroke-linecap:square;stroke-width:1.5;"/>
    </g>
    <g id="line2d_26"/>
    <g id="text_19">
     <!-- P(die=2) -->
     <g transform="translate(332.089063 38.476563)scale(0.1 -0.1)">
      <use xlink:href="#DejaVuSans-80"/>
      <use x="60.302734" xlink:href="#DejaVuSans-40"/>
      <use x="99.316406" xlink:href="#DejaVuSans-100"/>
      <use x="162.792969" xlink:href="#DejaVuSans-105"/>
      <use x="190.576172" xlink:href="#DejaVuSans-101"/>
      <use x="252.099609" xlink:href="#DejaVuSans-61"/>
      <use x="335.888672" xlink:href="#DejaVuSans-50"/>
      <use x="399.511719" xlink:href="#DejaVuSans-41"/>
     </g>
    </g>
    <g id="line2d_27">
     <path d="M 304.089063 49.654688 
L 324.089063 49.654688 
" style="fill:none;stroke:#2ca02c;stroke-linecap:square;stroke-width:1.5;"/>
    </g>
    <g id="line2d_28"/>
    <g id="text_20">
     <!-- P(die=3) -->
     <g transform="translate(332.089063 53.154688)scale(0.1 -0.1)">
      <use xlink:href="#DejaVuSans-80"/>
      <use x="60.302734" xlink:href="#DejaVuSans-40"/>
      <use x="99.316406" xlink:href="#DejaVuSans-100"/>
      <use x="162.792969" xlink:href="#DejaVuSans-105"/>
      <use x="190.576172" xlink:href="#DejaVuSans-101"/>
      <use x="252.099609" xlink:href="#DejaVuSans-61"/>
      <use x="335.888672" xlink:href="#DejaVuSans-51"/>
      <use x="399.511719" xlink:href="#DejaVuSans-41"/>
     </g>
    </g>
    <g id="line2d_29">
     <path d="M 304.089063 64.332813 
L 324.089063 64.332813 
" style="fill:none;stroke:#d62728;stroke-linecap:square;stroke-width:1.5;"/>
    </g>
    <g id="line2d_30"/>
    <g id="text_21">
     <!-- P(die=4) -->
     <g transform="translate(332.089063 67.832813)scale(0.1 -0.1)">
      <use xlink:href="#DejaVuSans-80"/>
      <use x="60.302734" xlink:href="#DejaVuSans-40"/>
      <use x="99.316406" xlink:href="#DejaVuSans-100"/>
      <use x="162.792969" xlink:href="#DejaVuSans-105"/>
      <use x="190.576172" xlink:href="#DejaVuSans-101"/>
      <use x="252.099609" xlink:href="#DejaVuSans-61"/>
      <use x="335.888672" xlink:href="#DejaVuSans-52"/>
      <use x="399.511719" xlink:href="#DejaVuSans-41"/>
     </g>
    </g>
    <g id="line2d_31">
     <path d="M 304.089063 79.010938 
L 324.089063 79.010938 
" style="fill:none;stroke:#9467bd;stroke-linecap:square;stroke-width:1.5;"/>
    </g>
    <g id="line2d_32"/>
    <g id="text_22">
     <!-- P(die=5) -->
     <g transform="translate(332.089063 82.510938)scale(0.1 -0.1)">
      <use xlink:href="#DejaVuSans-80"/>
      <use x="60.302734" xlink:href="#DejaVuSans-40"/>
      <use x="99.316406" xlink:href="#DejaVuSans-100"/>
      <use x="162.792969" xlink:href="#DejaVuSans-105"/>
      <use x="190.576172" xlink:href="#DejaVuSans-101"/>
      <use x="252.099609" xlink:href="#DejaVuSans-61"/>
      <use x="335.888672" xlink:href="#DejaVuSans-53"/>
      <use x="399.511719" xlink:href="#DejaVuSans-41"/>
     </g>
    </g>
    <g id="line2d_33">
     <path d="M 304.089063 93.689063 
L 324.089063 93.689063 
" style="fill:none;stroke:#8c564b;stroke-linecap:square;stroke-width:1.5;"/>
    </g>
    <g id="line2d_34"/>
    <g id="text_23">
     <!-- P(die=6) -->
     <g transform="translate(332.089063 97.189063)scale(0.1 -0.1)">
      <defs>
       <path d="M 33.015625 40.375 
Q 26.375 40.375 22.484375 35.828125 
Q 18.609375 31.296875 18.609375 23.390625 
Q 18.609375 15.53125 22.484375 10.953125 
Q 26.375 6.390625 33.015625 6.390625 
Q 39.65625 6.390625 43.53125 10.953125 
Q 47.40625 15.53125 47.40625 23.390625 
Q 47.40625 31.296875 43.53125 35.828125 
Q 39.65625 40.375 33.015625 40.375 
z
M 52.59375 71.296875 
L 52.59375 62.3125 
Q 48.875 64.0625 45.09375 64.984375 
Q 41.3125 65.921875 37.59375 65.921875 
Q 27.828125 65.921875 22.671875 59.328125 
Q 17.53125 52.734375 16.796875 39.40625 
Q 19.671875 43.65625 24.015625 45.921875 
Q 28.375 48.1875 33.59375 48.1875 
Q 44.578125 48.1875 50.953125 41.515625 
Q 57.328125 34.859375 57.328125 23.390625 
Q 57.328125 12.15625 50.6875 5.359375 
Q 44.046875 -1.421875 33.015625 -1.421875 
Q 20.359375 -1.421875 13.671875 8.265625 
Q 6.984375 17.96875 6.984375 36.375 
Q 6.984375 53.65625 15.1875 63.9375 
Q 23.390625 74.21875 37.203125 74.21875 
Q 40.921875 74.21875 44.703125 73.484375 
Q 48.484375 72.75 52.59375 71.296875 
z
" id="DejaVuSans-54"/>
      </defs>
      <use xlink:href="#DejaVuSans-80"/>
      <use x="60.302734" xlink:href="#DejaVuSans-40"/>
      <use x="99.316406" xlink:href="#DejaVuSans-100"/>
      <use x="162.792969" xlink:href="#DejaVuSans-105"/>
      <use x="190.576172" xlink:href="#DejaVuSans-101"/>
      <use x="252.099609" xlink:href="#DejaVuSans-61"/>
      <use x="335.888672" xlink:href="#DejaVuSans-54"/>
      <use x="399.511719" xlink:href="#DejaVuSans-41"/>
     </g>
    </g>
   </g>
  </g>
 </g>
 <defs>
  <clipPath id="peb6c9ee366">
   <rect height="249.48" width="334.8" x="50.14375" y="7.2"/>
  </clipPath>
 </defs>
</svg>
